<svg xmlns="http://www.w3.org/2000/svg" viewBox="0 0 146 100" width="146" height="100">
  <defs>
    <linearGradient id="bodyGrad" x1="73" y1="27" x2="73" y2="94" gradientUnits="userSpaceOnUse">
      <stop offset="0%" stop-color="#C6B082"/>
      <stop offset="22%" stop-color="#B79F73"/>
      <stop offset="100%" stop-color="#A89466"/>
    </linearGradient>
    <linearGradient id="tabGrad" x1="26" y1="10" x2="26" y2="28" gradientUnits="userSpaceOnUse">
      <stop offset="0%" stop-color="#D8C79B"/>
      <stop offset="50%" stop-color="#C6B082"/>
      <stop offset="100%" stop-color="#B79F73"/>
    </linearGradient>
    <linearGradient id="innerShade" x1="73" y1="40" x2="73" y2="94" gradientUnits="userSpaceOnUse">
      <stop offset="0%" stop-color="#8A7655" stop-opacity="0"/>
      <stop offset="55%" stop-color="#8A7655" stop-opacity="0.05"/>
      <stop offset="100%" stop-color="#8A7655" stop-opacity="0.22"/>
    </linearGradient>
    <linearGradient id="bevelLeft" x1="9" y1="50" x2="28" y2="50" gradientUnits="userSpaceOnUse">
      <stop offset="0%" stop-color="#D8C79B" stop-opacity="0.30"/>
      <stop offset="100%" stop-color="#D8C79B" stop-opacity="0"/>
    </linearGradient>
  </defs>

  <!-- Ambient contact shadow -->
  <ellipse cx="73" cy="97" rx="46" ry="2.8" fill="#8A7655" opacity="0.24"/>

  <!-- Cast shadow -->
  <path fill="#8A7655" opacity="0.30" transform="translate(2.8, 3.2)" d="
    M 9 26 L 9 22 Q 9 14 14 12 L 38 10 Q 43 10 44 16 L 44 26
    Q 46 26 48 27 L 137 27 Q 141 27 141 31 L 141 90 Q 141 94 137 94
    L 13 94 Q 9 94 9 90 L 9 26 Z"/>

  <!-- Main body -->
  <path fill="url(#bodyGrad)" d="
    M 9 26 L 44 26 Q 46 26 48 27 L 137 27 Q 141 27 141 31 L 141 90
    Q 141 94 137 94 L 13 94 Q 9 94 9 90 L 9 26 Z"/>

  <!-- Tab (blends into body) -->
  <path fill="url(#tabGrad)" d="
    M 9 26 L 9 22 Q 9 14 14 12 L 38 10 Q 43 10 44 16 L 44 26 L 9 26 Z"/>

  <!-- Inner shadow -->
  <path fill="url(#innerShade)" d="
    M 9 26 L 44 26 Q 46 26 48 27 L 137 27 Q 141 27 141 31 L 141 90
    Q 141 94 137 94 L 13 94 Q 9 94 9 90 L 9 26 Z"/>

  <!-- Left bevel -->
  <path fill="url(#bevelLeft)" d="
    M 9 26 L 44 26 Q 46 26 48 27 L 137 27 Q 141 27 141 31 L 141 90
    Q 141 94 137 94 L 13 94 Q 9 94 9 90 L 9 26 Z"/>

  <!-- Tab fold shadow -->
  <path fill="none" stroke="#8A7655" stroke-width="1.1" stroke-opacity="0.22" stroke-linecap="round"
    d="M 44 26 Q 46 27 48 27"/>
  <path fill="none" stroke="#8A7655" stroke-width="0.8" stroke-opacity="0.14"
    d="M 44 16 L 44 28"/>

  <!-- Top highlights -->
  <path fill="none" stroke="#D8C79B" stroke-width="1.4" stroke-opacity="0.62" stroke-linecap="round"
    d="M 15 13 Q 38 11 40 15"/>
  <path fill="none" stroke="#D8C79B" stroke-width="1.2" stroke-opacity="0.40" stroke-linecap="round"
    d="M 50 28.5 L 134 28.5"/>

  <!-- Outer edge highlight -->
  <path fill="none" stroke="#D8C79B" stroke-width="0.7" stroke-opacity="0.22" d="
    M 9 26 L 9 22 Q 9 14 14 12 L 38 10 Q 43 10 44 16 L 44 26
    Q 46 26 48 27 L 137 27 Q 141 27 141 31 L 141 90 Q 141 94 137 94
    L 13 94 Q 9 94 9 90 L 9 26 Z"/>

  <!-- Bottom depth -->
  <path fill="none" stroke="#8A7655" stroke-width="1.0" stroke-opacity="0.16" stroke-linecap="round"
    d="M 14 91 Q 73 93 136 91"/>
</svg>
