<?xml version="1.0" encoding="UTF-8" standalone="no"?>
<!-- Created with Inkscape (http://www.inkscape.org/) -->

<svg
   width="64"
   height="64"
   viewBox="0 0 64 64"
   version="1.1"
   id="svg1"
   xml:space="preserve"
   inkscape:export-filename="Ic_Msh_Cube.svg"
   inkscape:export-xdpi="1536"
   inkscape:export-ydpi="1536"
   xmlns:inkscape="http://www.inkscape.org/namespaces/inkscape"
   xmlns:sodipodi="http://sodipodi.sourceforge.net/DTD/sodipodi-0.dtd"
   xmlns="http://www.w3.org/2000/svg"
   xmlns:svg="http://www.w3.org/2000/svg"><sodipodi:namedview
     id="namedview1"
     pagecolor="#ffffff"
     bordercolor="#000000"
     borderopacity="0.25"
     inkscape:showpageshadow="2"
     inkscape:pageopacity="0.0"
     inkscape:pagecheckerboard="0"
     inkscape:deskcolor="#d1d1d1"
     inkscape:document-units="px"
     showgrid="true"
     showguides="true"><inkscape:grid
       id="grid8"
       units="px"
       originx="0"
       originy="0"
       spacingx="1"
       spacingy="1"
       empcolor="#0099e5"
       empopacity="0.30196078"
       color="#0099e5"
       opacity="0.14901961"
       empspacing="5"
       enabled="true"
       visible="true" /><sodipodi:guide
       position="3.9342815,57.975632"
       orientation="1,0"
       id="guide8"
       inkscape:locked="false" /><sodipodi:guide
       position="59.997792,15.805052"
       orientation="1,0"
       id="guide9"
       inkscape:locked="false" /><sodipodi:guide
       position="38.236298,3.7563153"
       orientation="0,-1"
       id="guide10"
       inkscape:locked="false" /><sodipodi:guide
       position="38.236298,60.188665"
       orientation="0,-1"
       id="guide11"
       inkscape:locked="false" /><inkscape:page
       x="0"
       y="0"
       width="64"
       height="64"
       id="page2"
       margin="0"
       bleed="0" /></sodipodi:namedview><defs
     id="defs1"><linearGradient
       id="swatch18"
       inkscape:swatch="solid"><stop
         style="stop-color:#000000;stop-opacity:1;"
         offset="0"
         id="stop19" /></linearGradient></defs><g
     inkscape:label="Layer 1"
     inkscape:groupmode="layer"
     id="layer1"><path
       style="fill:#ffffff;fill-opacity:1;stroke:none;stroke-width:0.07343"
       d="m 20.575456,4.1254635 c -1.72313,0.2468619 -2.714841,1.3616178 -3.89182,2.5386086 L 12.865247,10.482442 7.2845858,16.063135 C 6.2601216,17.087593 5.0173324,18.07667 4.4453114,19.440923 4.1072239,20.247326 4.2005021,21.157485 4.2005021,22.010981 v 4.479239 c 0,5.440831 0.2351009,10.939963 0,16.374925 -0.1581063,3.611861 -0.070545,7.248573 -0.070545,10.867662 0,1.688535 -0.2805726,3.519322 0.8670947,4.918756 1.0306699,1.256769 2.4260966,1.249382 3.9058922,1.249382 h 5.947875 19.532409 6.314966 c 1.049474,0 2.192102,0.127714 3.230947,-0.02207 1.299444,-0.187338 2.134647,-1.15801 3.010652,-2.034009 l 4.405773,-4.405811 c 1.8008,-1.800769 3.605103,-3.59822 5.391585,-5.412865 1.000316,-1.016132 2.235914,-1.984947 2.807875,-3.325324 0.419014,-0.981997 0.257467,-1.988032 0.2453,-3.010641 -0.01843,-1.539257 0.07318,-3.082479 0.07318,-4.626101 V 20.101792 10.04186 c 0,-1.498094 0.279035,-3.282463 -0.699772,-4.5526705 C 58.10904,4.1204556 56.592745,4.0940146 55.017092,4.0940146 H 49.436372 30.124256 23.88272 c -1.077308,0 -2.237635,-0.1213788 -3.304375,0.031462 m 0.220291,3.1502449 c 0.926637,-0.16583 1.996021,-0.024215 2.937224,-0.024215 h 5.947813 18.357581 6.388397 c 0.47733,0 1.876259,-0.2351562 2.190812,0.1845899 0.222749,0.2972071 0.102925,0.729617 0.08843,1.0637232 -0.03379,0.7803615 0,1.5686484 0,2.3497594 v 9.399063 16.301499 4.772963 c 0,0.62408 0.169599,1.542767 -0.0547,2.129475 -0.318365,0.833286 -1.523301,1.651229 -2.148413,2.276335 l -5.287001,5.28697 c -1.4079,1.407907 -2.782373,2.848995 -4.18542,4.258949 -0.474747,0.477085 -0.986304,1.380655 -1.689025,1.517051 -0.917421,0.178065 -2.002779,0.02501 -2.937162,0.02501 H 34.532795 16.101784 9.6399572 c -0.5783515,0 -1.8245811,0.235661 -2.2445181,-0.237061 C 7.1561595,56.310459 7.2167478,55.90127 7.2167478,55.568583 v -2.423195 -9.545919 -16.37493 -4.626101 c 0,-0.64818 -0.1508558,-1.525179 0.1213596,-2.129473 0.3946205,-0.876006 1.5535328,-1.674888 2.2284178,-2.349767 L 14.633173,13.052519 18.818716,8.8669964 C 19.365665,8.3200511 19.993667,7.4202655 20.801341,7.2757272 M 41.141485,22.892159 v 13.511151 7.857028 6.755574 c 0,1.04374 -0.183301,2.283764 0.03809,3.304358 0.3505,1.615627 2.654622,1.462105 3.00709,-0.07343 0.181886,-0.79224 0.03871,-1.758604 0.03871,-2.570058 v -5.140114 -16.374929 -5.94784 c 0,-0.680734 -0.231353,-1.882987 0.07546,-2.496626 0.525076,-1.050174 1.958231,-2.033714 2.788334,-2.86378 l 6.388397,-6.388422 c 0.913549,-0.913538 3.221236,-2.600973 1.748753,-4.0229625 -1.405381,-1.3571572 -3.079228,1.0210775 -3.95167,1.8934875 -2.190566,2.190603 -4.344079,4.417548 -6.535259,6.608714 -0.812162,0.812174 -1.74814,2.25964 -2.790362,2.767005 -0.563049,0.274102 -1.514329,0.09677 -2.129487,0.09677 H 34.826332 16.689043 11.548965 c -0.714089,0 -1.6903158,-0.171685 -2.3497765,0.140962 -1.5119945,0.716855 -0.7478241,2.827734 0.7343047,2.936473 1.9361088,0.142051 3.9326218,0.0067 5.8743838,0.0067 h 11.748829 z"
       id="path1335"
       inkscape:label="path1335" /></g></svg>
