<svg width="231" height="203" viewBox="13 24 231 203" fill="none" xmlns="http://www.w3.org/2000/svg">
<path d="M19.0045 226.032C16.7162 225.263 14.336 222.983 13.4101 220.673L12.774 219.085V148.177V77.2686L13.408 75.6945C14.5527 72.8527 17.1788 70.6025 20.05 70.0033C21.1343 69.777 47.2967 69.7201 122.708 69.7799L223.911 69.8603L225.413 70.5642C227.416 71.5033 229.068 73.0746 230.014 74.9419L230.791 76.4748V148.05V219.626L229.92 221.395C228.926 223.413 227.527 224.766 225.367 225.798L223.911 226.494L122.311 226.549L20.7115 226.605L19.0045 226.032ZM234.63 222.228C234.632 222.1 234.84 221.4 235.093 220.673C235.525 219.431 235.558 215.023 235.627 148.706C235.708 70.5878 235.825 76.1947 234.035 72.5833C232.315 69.1122 228.2 65.9179 224.56 65.2276C223.662 65.0573 187.358 64.9655 120.952 64.9655H18.7271V49.5429C18.7271 36.5551 18.7911 33.8715 19.1323 32.5435C20.0692 28.898 22.0298 26.471 25.2826 24.93L27.0615 24.0874L60.262 24.0152C82.5557 23.9668 93.8987 24.0337 94.7902 24.219C96.8046 24.6377 98.7411 25.6416 100.251 27.0502C102.474 29.1234 102.412 28.9975 106.507 39.7618L107.74 43.0008L172.308 43.0691L236.876 43.1373L238.199 43.8376C240.091 44.839 241.456 46.2812 242.403 48.2787L243.226 50.0165V132.699V215.381L242.521 216.883C241.6 218.849 240.016 220.537 238.277 221.409C236.821 222.139 234.625 222.632 234.63 222.228Z" fill="black"/>
</svg>
