<?xml version="1.0" encoding="UTF-8" standalone="no"?>
<!-- Created with Inkscape (http://www.inkscape.org/) -->

<svg
   width="224.22424"
   height="182.99149"
   viewBox="0 0 224.22424 182.99149"
   version="1.1"
   id="svg1"
   xml:space="preserve"
   xmlns="http://www.w3.org/2000/svg"
   xmlns:svg="http://www.w3.org/2000/svg"><defs
     id="defs1" /><g
     id="layer1"
     transform="translate(-20.313942,-28.075904)"><path
       style="fill:#000000;stroke-width:0.324608"
       d="m 32.458684,210.70113 c -5.149036,-1.63886 -8.535079,-5.8639 -8.842722,-11.03379 -0.110635,-1.85838 0.06284,-3.06787 0.889459,-6.20374 0.564792,-2.14241 2.263916,-8.78876 3.775896,-14.76966 1.51198,-5.9809 3.389552,-13.35761 4.172471,-16.39269 0.782844,-3.03509 2.894108,-11.28825 4.691736,-18.34035 10.46636,-41.06013 14.915927,-58.093184 15.494529,-59.312443 0.877988,-1.850198 3.341543,-4.293825 5.42891,-5.384912 l 1.98141,-1.035726 h 88.293267 88.29335 l 1.60895,0.791775 c 3.63355,1.788106 5.98961,5.215196 6.26226,9.108763 0.12788,1.825732 -0.10172,3.028207 -1.70461,8.926715 -1.0188,3.749218 -2.47905,9.153938 -3.24501,12.010488 -0.76604,2.85655 -2.07597,7.67697 -2.91099,10.71206 -0.83502,3.03508 -1.78506,6.54084 -2.11119,7.79059 -0.9651,3.69853 -5.07822,18.9091 -5.98011,22.11496 -0.81317,2.89026 -1.22195,4.39186 -2.46297,9.04739 -0.33314,1.24974 -0.96823,3.58691 -1.41129,5.19373 -2.3915,8.67305 -4.2386,15.4417 -4.60631,16.87961 -2.73912,10.71162 -5.8721,21.7669 -6.55725,23.13823 -1.25264,2.50738 -3.59766,4.79044 -6.17375,6.01072 l -2.19464,1.03957 -85.69651,0.061 c -68.625394,0.0488 -85.955113,-0.0213 -86.994886,-0.35229 z M 20.314392,109.87708 c -0.0088,-37.904962 0.112242,-69.211977 0.271178,-70.310839 0.744774,-5.146324 4.516138,-9.541875 9.416282,-10.974775 1.559479,-0.456012 5.560589,-0.515561 34.639704,-0.515561 32.512661,0 32.896667,0.0074 34.682821,0.675784 1.499043,0.560838 2.950373,1.726775 8.533103,6.855027 8.1768,7.511009 10.4253,9.478828 11.2715,9.864463 0.37545,0.171096 19.95016,0.364297 46.41891,0.458161 l 45.76973,0.162298 1.56358,0.798732 c 1.90979,0.975607 3.93643,3.115792 4.87638,5.149495 0.65132,1.409362 0.70861,2.114697 0.80251,9.876409 l 0.10113,8.358649 -78.98083,0.0051 c -87.631873,0.0051 -80.933005,-0.166274 -85.439498,2.188583 -1.463385,0.7647 -3.147018,2.042265 -4.608723,3.497211 -3.25378,3.238727 -4.236921,5.413652 -6.598537,14.597398 -1.055924,4.106289 -2.965575,11.482995 -4.243717,16.392685 -3.716341,14.27586 -4.148137,15.94788 -6.370692,24.6702 -1.160055,4.55263 -2.894692,11.34504 -3.854743,15.09427 -0.960123,3.74921 -3.069194,12.0754 -4.686912,18.50264 -1.617646,6.42723 -3.077671,11.97803 -3.244499,12.33509 -0.189043,0.4048 -0.309031,-25.07596 -0.318677,-67.68073 z"
       id="path1" /></g></svg>
