<?xml version="1.0" encoding="UTF-8"?>
<svg xmlns="http://www.w3.org/2000/svg" width="231" height="203" viewBox="0 0 231 203" fill="none" shape-rendering="geometricPrecision">
  <path fill="#000000" d="M6.24 202.35C3.95 201.58 1.56 199.3 0.64 196.98L0 195.4L0 124.39L0 53.38L0.64 51.8C1.78 48.96 4.41 46.7 7.29 46.1C8.38 45.88 34.6 45.82 110.19 45.88L211.63 45.96L213.13 46.66C215.14 47.6 216.79 49.18 217.74 51.05L218.52 52.58L218.52 124.26L218.52 195.94L217.65 197.71C216.65 199.73 215.25 201.08 213.08 202.12L211.63 202.81L109.79 202.87L7.96 202.93ZM222.37 198.54C222.37 198.41 222.58 197.71 222.83 196.98C223.27 195.74 223.3 191.33 223.37 124.92C223.45 46.69 223.57 52.3 221.77 48.69C220.05 45.21 215.92 42.01 212.27 41.32C211.37 41.15 174.99 41.06 108.43 41.06L5.97 41.06L5.97 25.61C5.97 12.61 6.03 9.92 6.37 8.59C7.31 4.94 9.28 2.51 12.54 0.97L14.32 0.12L47.6 0.05C69.94 0 81.31 0.07 82.21 0.25C84.23 0.67 86.17 1.68 87.68 3.09C89.91 5.16 89.84 5.04 93.95 15.82L95.18 19.06L159.9 19.13L224.62 19.2L225.95 19.9C227.84 20.9 229.21 22.34 230.16 24.35L230.99 26.09L230.99 108.89L230.99 191.69L230.28 193.19C229.35 195.16 227.77 196.85 226.02 197.72C224.56 198.45 222.36 198.95 222.37 198.54Z"/>
</svg>
