<?xml version="1.0" encoding="UTF-8" standalone="no"?>
<!-- Created with Inkscape (http://www.inkscape.org/) -->

<svg
   width="230.45209mm"
   height="202.6046mm"
   viewBox="0 0 230.45209 202.6046"
   version="1.1"
   id="svg1"
   xml:space="preserve"
   xmlns="http://www.w3.org/2000/svg"
   xmlns:svg="http://www.w3.org/2000/svg"><defs
     id="defs1" /><g
     id="layer1"
     transform="translate(6.8284295,-43.874269)"><path
       style="fill:#000000"
       d="m -0.59787992,245.90585 c -2.28829998,-0.76811 -4.66850998,-3.04807 -5.59442998,-5.35882 l -0.63612,-1.5875 V 168.0512 97.142865 l 0.63407,-1.574118 c 1.14467,-2.841744 3.77081,-5.091955 6.64196998,-5.691176 C 1.5319601,89.651263 27.69435,89.594337 103.10594,89.654198 l 101.20312,0.08033 1.50155,0.703899 c 2.00333,0.939125 3.65474,2.510438 4.60089,4.377744 l 0.77673,1.53294 v 71.575359 71.57536 l -0.87101,1.76926 c -0.99354,2.01817 -2.39293,3.37164 -4.55295,4.40356 l -1.45521,0.69521 -101.59999,0.0555 -101.5999999,0.0555 z M 215.02755,242.1022 c 0.002,-0.12774 0.20994,-0.82756 0.46302,-1.55517 0.43198,-1.24189 0.46467,-5.64967 0.53381,-71.96666 0.0814,-78.118332 0.19866,-72.511365 -1.59144,-76.122785 -1.72056,-3.471107 -5.83532,-6.665396 -9.47535,-7.355714 -0.89789,-0.170281 -37.20147,-0.26213 -103.60755,-0.26213 H -0.87529992 V 69.417205 c 0,-12.987853 0.064,-15.67148 0.40525,-16.999478 0.93683,-3.645467 2.89742002,-6.072489 6.15024002,-7.613417 l 1.77888,-0.842692 33.2005899,-0.07213 c 22.29365,-0.04843 33.636711,0.01851 34.528121,0.203786 2.01449,0.418696 3.95093,1.422591 5.46115,2.831195 2.22277,2.073205 2.16082,1.947316 6.25613,12.711607 l 1.2323,3.239041 64.568139,0.06825 64.56815,0.06825 1.32291,0.700207 c 1.89199,1.001414 3.25707,2.443626 4.2036,4.441116 l 0.82349,1.737843 v 82.682297 82.68229 l -0.70465,1.50235 c -0.92175,1.96526 -2.50522,3.65348 -4.24471,4.52553 -1.45587,0.72986 -3.65172,1.22299 -3.64674,0.81895 z"
       id="path1" /></g></svg>
