<?xml version="1.0" encoding="UTF-8"?>
<svg xmlns="http://www.w3.org/2000/svg" width="231" height="203" viewBox="0 0 231 203" fill="none" shape-rendering="geometricPrecision">
  <path fill="#000000" d="M6.23 202.07C3.94 201.3 1.56 199.02 0.64 196.71L0 195.12L0 124.21L0 53.3L0.63 51.73C1.78 48.89 4.4 46.64 7.28 46.04C8.36 45.81 34.52 45.75 109.93 45.81L211.14 45.89L212.64 46.6C214.64 47.54 216.29 49.11 217.24 50.98L218.02 52.51L218.02 124.08L218.02 195.66L217.15 197.43C216.15 199.45 214.75 200.8 212.59 201.83L211.14 202.53L109.54 202.58L7.94 202.64L6.23 202.07ZM221.86 198.26C221.86 198.13 222.07 197.43 222.32 196.71C222.75 195.46 222.78 191.06 222.85 124.74C222.93 46.62 223.05 52.23 221.26 48.62C219.54 45.15 215.43 41.95 211.79 41.26C210.89 41.09 174.58 41 108.18 41L5.95 41L5.95 25.58C5.95 12.59 6.02 9.9 6.36 8.58C7.3 4.93 9.26 2.5 12.51 0.96L14.29 0.12L47.49 0.05C69.78 0 81.12 0.07 82.02 0.25C84.03 0.67 85.97 1.67 87.48 3.08C89.7 5.16 89.64 5.03 93.73 15.8L94.97 19.03L159.53 19.1L224.1 19.17L225.43 19.87C227.32 20.87 228.68 22.31 229.63 24.31L230.45 26.05L230.45 108.73L230.45 191.41L229.75 192.92C228.83 194.88 227.24 196.57 225.5 197.44C224.05 198.17 221.85 198.67 221.86 198.26Z"/>
</svg>
