<?xml version="1.0" encoding="UTF-8"?>
<svg xmlns="http://www.w3.org/2000/svg" viewBox="0 0 32 32" fill="none" shape-rendering="geometricPrecision">
  <path fill="#000000" d="M16 4.5C10.2 4.5 5.5 9.2 5.5 15C5.5 20.8 10.2 25.5 16 25.5C21.8 25.5 26.5 20.8 26.5 15C26.5 9.2 21.8 4.5 16 4.5ZM16 7.5C20.1 7.5 23.5 10.9 23.5 15C23.5 19.1 20.1 22.5 16 22.5C11.9 22.5 8.5 19.1 8.5 15C8.5 10.9 11.9 7.5 16 7.5Z"/>
  <path fill="#000000" d="M15.1 1.2H16.9V5.4H15.1V1.2ZM15.1 24.6H16.9V28.8H15.1V24.6ZM1.2 15.1H5.4V16.9H1.2V15.1ZM26.6 15.1H30.8V16.9H26.6V15.1ZM4.6 4.6L7.7 7.7L6.5 8.9L3.4 5.8L4.6 4.6ZM25.5 25.5L28.6 28.6L27.4 29.8L24.3 26.7L25.5 25.5ZM4.6 25.5L5.8 24.3L8.9 27.4L7.7 28.6L4.6 25.5ZM25.5 4.6L26.7 5.8L23.6 8.9L22.4 7.7L25.5 4.6Z"/>
</svg>
