<?xml version="1.0" encoding="UTF-8" standalone="no"?>
<!-- Created with Inkscape (http://www.inkscape.org/) -->

<svg
   width="64"
   height="64"
   viewBox="0 0 64 64"
   version="1.1"
   id="svg1"
   xml:space="preserve"
   inkscape:export-filename="Ic_Mesh_Cube.svg"
   inkscape:export-xdpi="1536"
   inkscape:export-ydpi="1536"
   xmlns:inkscape="http://www.inkscape.org/namespaces/inkscape"
   xmlns:sodipodi="http://sodipodi.sourceforge.net/DTD/sodipodi-0.dtd"
   xmlns="http://www.w3.org/2000/svg"
   xmlns:svg="http://www.w3.org/2000/svg"><sodipodi:namedview
     id="namedview1"
     pagecolor="#ffffff"
     bordercolor="#000000"
     borderopacity="0.25"
     inkscape:showpageshadow="2"
     inkscape:pageopacity="0.0"
     inkscape:pagecheckerboard="0"
     inkscape:deskcolor="#d1d1d1"
     inkscape:document-units="px"
     showgrid="true"
     showguides="true"><inkscape:grid
       id="grid8"
       units="px"
       originx="0"
       originy="0"
       spacingx="1"
       spacingy="1"
       empcolor="#0099e5"
       empopacity="0.30196078"
       color="#0099e5"
       opacity="0.14901961"
       empspacing="5"
       enabled="true"
       visible="true" /><sodipodi:guide
       position="3.9342815,57.975632"
       orientation="1,0"
       id="guide8"
       inkscape:locked="false" /><sodipodi:guide
       position="59.997792,15.805052"
       orientation="1,0"
       id="guide9"
       inkscape:locked="false" /><sodipodi:guide
       position="38.236298,3.7563153"
       orientation="0,-1"
       id="guide10"
       inkscape:locked="false" /><sodipodi:guide
       position="38.236298,60.188665"
       orientation="0,-1"
       id="guide11"
       inkscape:locked="false" /><inkscape:page
       x="0"
       y="0"
       width="64"
       height="64"
       id="page2"
       margin="0"
       bleed="0" /></sodipodi:namedview><defs
     id="defs1"><linearGradient
       id="swatch18"
       inkscape:swatch="solid"><stop
         style="stop-color:#000000;stop-opacity:1;"
         offset="0"
         id="stop19" /></linearGradient></defs><g
     inkscape:label="Layer 1"
     inkscape:groupmode="layer"
     id="layer1"><path
       style="fill:#ffffff;fill-opacity:1;stroke:none;stroke-width:0.0754638"
       d="m 21.436781,3.3324845 c -3.342754,0.4442998 -5.531876,3.2104391 -7.999158,5.2814193 -1.8634,1.5640862 -3.6653312,3.2014852 -5.508861,4.7888642 -1.2647332,1.088993 -2.6311891,2.099297 -3.3763019,3.632098 -0.560898,1.15383 -0.5478142,2.44587 -0.5478142,3.697724 v 4.452362 17.658527 10.640395 c 0,2.038969 -0.1728295,4.077595 1.240556,5.734957 1.3322829,1.56226 3.2193419,1.585028 5.0984041,1.585028 h 4.905145 19.167804 6.263492 c 1.058484,0 2.196716,0.11778 3.244944,-0.03231 3.352685,-0.480098 5.600273,-3.983222 7.848231,-6.231187 1.57283,-1.572818 3.105906,-3.181361 4.678757,-4.754214 1.168954,-1.16895 2.453347,-2.29177 3.103446,-3.848654 0.477955,-1.144599 0.44335,-2.4091 0.44335,-3.622261 V 37.711935 20.506191 10.544969 c 0,-1.9277091 0.123268,-3.9126719 -1.147856,-5.5085612 C 56.751218,2.4002535 52.183247,3.3004401 49.207457,3.3004401 H 30.643366 24.606263 c -1.037872,0 -2.140293,-0.1047735 -3.169482,0.032031 m 0,3.3102156 c 2.794472,-0.3640355 5.858241,-0.021839 8.678335,-0.021839 h 17.432136 6.112568 c 0.921343,0 1.949375,-0.08933 2.61637,0.6821964 0.794244,0.9187111 0.477645,2.6440589 0.477645,3.7701669 v 9.508435 16.752958 4.75422 c 0,0.854121 0.115787,1.833469 -0.222957,2.641234 -0.387345,0.923651 -1.315517,1.601449 -1.994546,2.307063 -1.482955,1.541007 -3.018289,3.032338 -4.492719,4.581747 -1.344586,1.41296 -2.702303,2.825584 -4.0811,4.204367 -0.629576,0.629578 -1.25684,1.473187 -2.18845,1.635396 -0.931769,0.162247 -1.997572,0.0248 -2.943088,0.0248 H 34.869336 16.531638 10.268142 c -0.9312595,0 -1.9506159,0.140753 -2.6012852,-0.680337 C 6.9022084,55.838171 7.2495902,54.040225 7.2495902,52.880143 v -9.961214 -17.205745 -4.75422 c 0,-0.810351 -0.133801,-1.735105 0.2107291,-2.490303 0.4185735,-0.917505 1.3311049,-1.455681 2.0531845,-2.119444 1.7418532,-1.601177 3.5664202,-3.126134 5.3579302,-4.672296 1.284245,-1.10836 2.582428,-2.204296 3.848654,-3.3329293 0.804953,-0.7174741 1.597492,-1.5555063 2.716693,-1.7013064 M 42.415714,20.506182 v 13.432553 16.224714 c 0,0.75698 -0.182808,1.799594 0.184296,2.49002 0.471676,0.887102 1.914561,0.905809 2.446049,0.07459 0.427617,-0.668768 0.23728,-1.730971 0.23728,-2.489145 V 44.579132 27.297923 22.24185 c 0,-0.659698 -0.183488,-1.642794 0.04555,-2.263913 0.296793,-0.804928 1.610689,-1.656218 2.218379,-2.263914 1.97563,-1.975624 4.038221,-3.861896 6.037103,-5.811813 0.844556,-0.823874 2.832564,-2.237122 1.499262,-3.5296244 -1.294661,-1.2550417 -2.702329,0.658755 -3.536783,1.4932034 -1.887603,1.887601 -3.804011,3.749039 -5.736354,5.591074 -0.637506,0.607709 -1.480316,1.911161 -2.306246,2.220068 -0.490478,0.183447 -1.522548,-0.03838 -2.069549,-0.03838 H 36.378621 19.021949 13.58856 c -0.713882,0 -1.698253,-0.176488 -2.339085,0.191168 -1.145831,0.657362 -0.849485,2.551373 0.527953,2.669357 1.931927,0.165475 3.946552,0.007 5.886174,0.007 h 11.696886 z"
       id="path1334"
       inkscape:label="path1334" /></g></svg>
