<?xml version="1.0" encoding="UTF-8" standalone="no"?>
<!-- Created with Inkscape (http://www.inkscape.org/) -->

<svg
   width="31.999916"
   height="32.390221"
   viewBox="0 0 31.999916 32.390222"
   version="1.1"
   id="svg1"
   xml:space="preserve"
   xmlns="http://www.w3.org/2000/svg"
   xmlns:svg="http://www.w3.org/2000/svg"><defs
     id="defs1" /><g
     id="layer1"
     transform="translate(-84.993256,-3.6662615)"><path
       style="fill:#000000;stroke-width:0.042221"
       d="m 86.761878,36.041731 c -0.51711,-0.02073 -0.59348,-0.03421 -0.82331,-0.145265 -0.45448,-0.21961 -0.79806,-0.660707 -0.90498,-1.161845 -0.0375,-0.175839 -0.0464,-3.819777 -0.0367,-15.00958 l 0.0128,-14.7773635 0.14464,-0.308652 c 0.24197,-0.516333 0.66857,-0.840181 1.23319,-0.936155 0.1896,-0.03223 3.78925,-0.04218 12.21734,-0.03376 11.315202,0.0113 11.955772,0.01587 12.084572,0.08628 0.19066,0.104222 6.09391,6.0378886 6.19714,6.2290796 0.0838,0.1552249 0.0845,0.2473739 0.0955,12.3582709 l 0.0111,12.201881 -0.0888,0.293433 c -0.15923,0.526381 -0.56278,0.965099 -1.03108,1.120937 -0.25353,0.08437 -0.35327,0.08503 -14.39841,0.09527 -7.778712,0.0057 -14.399602,3e-5 -14.713092,-0.01254 z m 25.195922,-8.285109 -0.0111,-6.598011 -0.13861,-0.215999 c -0.15259,-0.237789 -0.37195,-0.404312 -0.62522,-0.474633 -0.11652,-0.03235 -3.11945,-0.04589 -10.21667,-0.04605 -11.135422,-2.24e-4 -10.256882,-0.02301 -10.604642,0.274655 -0.0931,0.07973 -0.21275,0.243085 -0.26881,0.367143 l -0.10098,0.223498 -0.0112,6.533705 -0.0112,6.533706 h 10.999742 10.99975 z m -19.529852,4.140746 c -0.071,-0.07102 -0.071,-1.389826 0,-1.460848 0.0737,-0.07373 17.051112,-0.07373 17.124852,0 0.0645,0.06452 0.0706,1.310961 0.007,1.429847 -0.043,0.08033 -0.18343,0.08167 -8.56243,0.08167 -6.569382,0 -8.530312,-0.01159 -8.569382,-0.05067 z m -0.0225,-3.397387 c -0.053,-0.053 -0.0321,-1.428728 0.0225,-1.483366 0.0737,-0.07373 17.051112,-0.07373 17.124852,0 0.071,0.07102 0.071,1.389826 0,1.460848 -0.0391,0.03907 -2.00347,0.05067 -8.58495,0.05067 -4.693852,0 -8.546942,-0.01267 -8.562422,-0.02815 z m 0.0225,-3.400201 c -0.0534,-0.05342 -0.0753,-1.313835 -0.025,-1.444728 0.0232,-0.0606 0.81693,-0.06679 8.562422,-0.06679 6.58344,0 8.54839,0.01159 8.58746,0.05067 0.0645,0.06452 0.0706,1.310961 0.007,1.429847 -0.043,0.08033 -0.18343,0.08167 -8.56242,0.08167 -6.569382,0 -8.530312,-0.01159 -8.569392,-0.05067 z m 15.873742,-9.534773 c 0.17246,-0.0479 0.39639,-0.275446 0.44618,-0.453389 0.0178,-0.06343 0.0323,-2.159126 0.0323,-4.657095 V 5.9127614 l -0.12741,-0.2491209 c -0.14802,-0.289408 -0.44197,-0.53675 -0.72156,-0.607153 -0.12584,-0.03169 -2.58228,-0.04548 -8.100342,-0.04548 h -7.91973 l 0.0114,4.8026426 0.0114,4.8026429 0.11397,0.243195 c 0.16475,0.35157 0.48803,0.619132 0.85711,0.709383 0.20443,0.04998 15.216332,0.04622 15.396652,-0.0039 z m -5.62248,-5.170815 V 6.8265144 h 1.89995 1.89994 v 3.5676776 3.567677 h -1.89994 -1.89995 z"
       id="path3" /></g></svg>
