<?xml version="1.0" encoding="UTF-8" standalone="no"?>
<!-- Created with Inkscape (http://www.inkscape.org/) -->

<svg
   width="32.282585"
   height="31.999996"
   viewBox="0 0 32.282585 31.999998"
   version="1.1"
   id="svg1"
   xml:space="preserve"
   xmlns="http://www.w3.org/2000/svg"
   xmlns:svg="http://www.w3.org/2000/svg"><defs
     id="defs1" /><g
     id="layer1"
     transform="translate(-46.064094,-3.2870616)"><path
       style="fill:#000000;stroke-width:0.0429652"
       d="m 75.216879,35.234629 c -0.345259,-0.0786 -0.786884,-0.28385 -1.012867,-0.47084 -0.09586,-0.0793 -1.740381,-1.7123 -3.654481,-3.62882 -1.9141,-1.91652 -3.506024,-3.48464 -3.537608,-3.4847 -0.03158,-5e-5 -0.195927,0.0944 -0.365205,0.20995 -0.524769,0.35816 -0.835343,0.5377 -1.553769,0.8982 -2.350615,1.17953 -4.991253,1.61071 -7.55068,1.23294 -3.759746,-0.55495 -7.308549,-2.83525 -9.360632,-6.01473 -0.734588,-1.13817 -1.379185,-2.57301 -1.673146,-3.72434 -0.770634,-3.01828 -0.533638,-6.190046 0.669282,-8.957132 1.54849,-3.5620034 4.501141,-6.2392624 8.162072,-7.4008004 2.2968,-0.728727 4.921967,-0.804682 7.304087,-0.211333 2.962751,0.737975 5.647637,2.568632 7.466396,5.0908729 1.355832,1.8802565 2.227517,4.1998925 2.459603,6.5452355 0.292168,2.952487 -0.366934,5.822757 -1.921884,8.369427 l -0.08645,0.14158 3.667839,3.66084 c 3.35599,3.34958 3.681404,3.68674 3.827392,3.96555 0.218967,0.41819 0.291088,0.72682 0.289838,1.24032 -0.0013,0.52686 -0.04203,0.7139 -0.247315,1.13529 -0.190749,0.39154 -0.615093,0.85846 -0.980241,1.07858 -0.54414,0.32803 -1.310534,0.45853 -1.902231,0.32391 z M 60.78353,26.185269 c 3.170448,-0.46183 6.01853,-2.61957 7.289384,-5.52252 0.562307,-1.28445 0.798577,-2.45643 0.800092,-3.96873 9.28e-4,-0.926829 -0.03881,-1.312511 -0.220644,-2.141742 -0.298121,-1.359514 -1.036007,-2.880798 -1.910013,-3.937835 -1.580062,-1.9109515 -3.715976,-3.1170834 -6.0963,-3.4425254 -0.711038,-0.09721 -1.87045,-0.0967 -2.552106,0.0011 -4.387858,0.629748 -7.723364,4.0669164 -8.233987,8.4849534 -0.08373,0.724481 -0.03343,2.087489 0.103478,2.803999 0.576144,3.01518 2.433909,5.47081 5.178518,6.84506 1.743789,0.87313 3.644873,1.16906 5.641578,0.87821 z"
       id="path2" /></g></svg>
