<?xml version="1.0" encoding="UTF-8" standalone="no"?>
<!-- Created with Inkscape (http://www.inkscape.org/) -->

<svg
   width="32.000198"
   height="32.000217"
   viewBox="0 0 32.000199 32.000219"
   version="1.1"
   id="svg1"
   xml:space="preserve"
   xmlns="http://www.w3.org/2000/svg"
   xmlns:svg="http://www.w3.org/2000/svg"><defs
     id="defs1" /><g
     id="layer1"
     transform="translate(-131.5852,-1.8555692)"><path
       style="fill:#000000;stroke-width:0.0440208"
       d="m 133.21865,33.815638 c -0.493,-0.0909 -1.077,-0.49739 -1.356,-0.94398 -0.2987,-0.47809 -0.2771,0.39877 -0.2771,-11.21247 0,-10.09928 0,-10.53182 0.084,-10.77535 0.2154,-0.65132 0.8251,-1.1735201 1.513,-1.2959701 0.1991,-0.0354 2.6918,-0.045 9.3203,-0.0358 l 9.0483,0.0126 0.2418,0.1249 c 0.1328,0.0687 0.3157,0.20261 0.4062,0.29758 0.3177,0.3336501 0.956,0.9853601 1.8326,1.8713001 0.4869,0.49203 1.0818,1.09522 1.3219,1.34043 0.2403,0.24523 0.5811,0.58957 0.7574,0.76522 0.4269,0.42516 0.5082,0.54017 0.5902,0.83322 0.061,0.21784 0.069,1.28077 0.069,8.75199 -7e-4,7.43464 -0.011,8.53828 -0.07,8.7764 -0.1904,0.7536 -0.8412,1.35476 -1.6145,1.49154 -0.2967,0.0525 -21.5824,0.0509 -21.8672,-0.002 z m 1.1443,-1.72287 c 0.058,-0.0546 0.072,-0.17915 0.072,-0.6792 0,-0.78304 0.036,-0.75114 -0.8363,-0.724 -0.342,0.0106 -0.6426,0.0312 -0.6677,0.0457 -0.027,0.0159 -0.046,0.28825 -0.046,0.68071 0,0.57831 0.011,0.65934 0.08,0.69764 0.044,0.0238 0.3604,0.0439 0.7033,0.0447 0.5074,9.4e-4 0.6369,-0.0112 0.6952,-0.0656 z m 18.0009,0.008 c 0.3264,-0.12721 0.3041,0.21783 0.3041,-4.70247 v -4.42333 l -0.156,-0.1588 -0.1561,-0.15879 -8.0523,-0.0129 c -5.6898,-0.009 -8.0962,6e-4 -8.2018,0.0331 -0.082,0.0253 -0.1987,0.0948 -0.2588,0.15448 l -0.1093,0.10847 -0.014,4.40717 c -0.013,4.16251 -0.011,4.41519 0.068,4.55162 0.045,0.0795 0.1431,0.16956 0.2187,0.20027 0.2078,0.0845 16.1405,0.0856 16.3572,9.3e-4 z m -14.2771,-2.6927 c -0.4414,-0.20352 -0.4306,-0.88236 0.017,-1.05669 0.2399,-0.0934 11.9528,-0.0918 12.1467,0.002 0.4081,0.19678 0.474,0.67884 0.1345,0.98223 l -0.1387,0.12393 -6.0026,0.01 c -5.529,0.009 -6.0148,0.005 -6.1567,-0.0611 z m -0.034,-3.02744 c -0.2168,-0.12331 -0.2902,-0.24936 -0.2902,-0.49857 0,-0.17824 0.024,-0.24756 0.1232,-0.35766 0.2413,-0.2675 -0.1323,-0.25256 6.314,-0.25249 5.5205,4e-5 5.903,0.005 6.0493,0.0744 0.4443,0.21121 0.4854,0.79244 0.073,1.03017 -0.1472,0.0848 -0.2126,0.0857 -6.1375,0.0855 -5.8151,-1.8e-4 -5.993,-0.003 -6.1318,-0.0814 z m 12.2559,-8.20473 0.1489,-0.12404 0.012,-3.3858 c 0.011,-3.07152 0.011,-3.3995 -0.063,-3.53344 -0.093,-0.18232 -0.1708,-0.22295 -0.4553,-0.23694 -0.1227,-0.006 -3.0816,-0.007 -6.5753,-0.002 l -6.352,0.009 -0.1322,0.13203 -0.1323,0.13203 v 3.43454 3.43456 l 0.1612,0.13193 0.1611,0.13195 h 6.5388 6.5391 z m -4.1739,-1.00962 c -0.017,-0.0156 -0.03,-1.14426 -0.03,-2.50819 v -2.47984 h 1.527 1.5271 v 2.50819 2.50818 h -1.4967 c -0.8232,0 -1.5103,-0.0128 -1.527,-0.0284 z m 12.099,3.47688 0.019,-8.25029 -0.1263,-0.11794 -0.1262,-0.11794 -0.8651,-0.0213 -0.865,-0.0213 -1.1397,-1.05993 -1.1398,-1.0599401 v -0.92308 -0.92308 l -0.161,-0.13194 -0.1612,-0.13194 h -7.9818 -7.9817 l 0.021,-0.62704 c 0.02,-0.57814 0.032,-0.6459 0.1488,-0.86867 0.1676,-0.3185399 0.4359,-0.5726199 0.7494,-0.7097599 l 0.2548,-0.11142 h 7.4083 7.4083 l 0.2956,0.13574 c 0.3214,0.14763 0.054,-0.0957 4.0691,3.7085399 1.632,1.5464701 1.8765,1.7952601 2.0051,2.0405601 l 0.1467,0.27936 v 8.05596 8.05596 l -0.1195,0.23759 c -0.1392,0.27678 -0.4294,0.55306 -0.7224,0.68776 -0.1641,0.0754 -0.304,0.098 -0.681,0.10962 l -0.4745,0.0147 z m 3.3234,-3.30254 c 0,-5.47504 -0.015,-8.1277801 -0.0472,-8.1830501 -0.10401,-0.18059 -0.26538,-0.21021 -1.14785,-0.21021 h -0.83465 l -1.5609,-1.45951 -1.5606,-1.4594999 v -0.84742 c 0,-0.9561 -0.033,-1.07941 -0.323,-1.218 -0.1464,-0.0698 -0.5907,-0.0743 -7.3532,-0.0744 l -7.1976,-9e-5 0.031,-0.44448 c 0.037,-0.51302 0.1019,-0.71809 0.3231,-0.99914 0.1699,-0.21595 0.3791,-0.36181 0.7079,-0.49351 0.1992,-0.0798 0.3977,-0.0825 6.8604,-0.0936 4.4687,-0.007 6.7299,0.003 6.8831,0.0327 0.5228,0.1012 0.5898,0.15261 2.302,1.76691 0.89,0.83912 2.26802,2.1383 3.06214,2.8870299 0.79426,0.74874 1.4872,1.41295 1.53991,1.47603 0.0528,0.063 0.15161,0.22567 0.21977,0.36135 l 0.12394,0.24667 v 7.8646701 7.86467 l -0.133,0.26863 c -0.26725,0.53982 -0.76979,0.81541 -1.48695,0.81541 h -0.40853 z"
       id="path4" /></g></svg>
