<?xml version="1.0" encoding="UTF-8" standalone="no"?>
<!-- Created with Inkscape (http://www.inkscape.org/) -->

<svg
   width="32.209503"
   height="31.999949"
   viewBox="0 0 32.209503 31.99995"
   version="1.1"
   id="svg1"
   xml:space="preserve"
   xmlns="http://www.w3.org/2000/svg"
   xmlns:svg="http://www.w3.org/2000/svg"><defs
     id="defs1" /><g
     id="layer1"
     transform="translate(-4.4047212,-2.7066475)"><path
       style="fill:#000000;stroke-width:0.0402923"
       d="m 18.452807,34.676203 c -0.307963,-0.07475 -0.648737,-0.369199 -0.780116,-0.674081 -0.06324,-0.146753 -0.154443,-0.799366 -0.358768,-2.567132 -0.05636,-0.487536 -0.112286,-0.918174 -0.124301,-0.956979 -0.02766,-0.08931 -0.10994,-0.132836 -0.449055,-0.237338 -0.430451,-0.132652 -1.024261,-0.378821 -1.568047,-0.650042 -0.48582,-0.242307 -0.504704,-0.248095 -0.610171,-0.187069 -0.05987,0.03466 -0.657383,0.496808 -1.327828,1.027055 -0.670447,0.530248 -1.31661,1.015212 -1.435918,1.077713 -0.181374,0.09501 -0.26533,0.11348 -0.512271,0.112697 -0.487937,-0.0018 -0.536625,-0.03871 -2.1193545,-1.616403 -1.466634,-1.462008 -1.5229417,-1.53121 -1.5701283,-1.929627 -0.039367,-0.332385 0.046524,-0.574958 0.3415365,-0.964554 0.4311335,-0.569365 0.7096545,-0.933623 0.9810612,-1.283051 0.7576689,-0.975477 0.8803164,-1.146315 0.8803164,-1.226236 0,-0.04802 -0.098269,-0.288843 -0.2183768,-0.535105 C 9.3285074,23.547564 9.2507358,23.357776 9.0125517,22.677936 8.9167533,22.404503 8.807659,22.158324 8.7701203,22.130877 8.7076279,22.085159 8.3196105,22.034106 6.0122959,21.767854 5.1473622,21.668051 4.9518495,21.608307 4.7149773,21.371438 4.6369947,21.293461 4.5338992,21.148486 4.4858771,21.049284 4.3991824,20.870196 4.3986432,20.85355 4.4096594,18.697895 c 0.012405,-2.427314 -4.028e-4,-2.318021 0.3072531,-2.625658 0.2745986,-0.274599 0.4202657,-0.31019 1.8393285,-0.449405 0.7091428,-0.06957 1.4811399,-0.141821 1.7155489,-0.160563 0.2344093,-0.01874 0.4655395,-0.05864 0.5136233,-0.08867 0.056995,-0.0356 0.1240634,-0.16695 0.192685,-0.377379 0.1372969,-0.421023 0.5071825,-1.31684 0.6830177,-1.654183 0.076253,-0.146298 0.1386474,-0.311941 0.1386474,-0.368093 0,-0.06763 -0.1331809,-0.274025 -0.3946157,-0.611528 C 8.4593542,11.141434 7.7981302,10.250319 7.7061274,10.072689 7.6290491,9.9238733 7.6066085,9.8180994 7.6053969,9.5978957 7.602657,9.099706 7.6340056,9.0587003 9.2440385,7.4545281 10.640087,6.0635611 10.670403,6.0364409 10.904778,5.9688799 c 0.296386,-0.085433 0.611835,-0.059708 0.85432,0.069671 0.09579,0.051118 0.44107,0.3105123 0.767282,0.5764408 0.326212,0.2659285 0.909826,0.7418793 1.296918,1.0576703 0.504387,0.4114785 0.733337,0.5740258 0.808032,0.5736784 0.05733,-2.821e-4 0.18582,-0.047357 0.285543,-0.1046486 0.330606,-0.1899293 1.03953,-0.493173 1.601327,-0.6849706 0.304867,-0.1040817 0.578568,-0.2113765 0.608223,-0.2384312 0.03525,-0.032158 0.08754,-0.354438 0.15101,-0.930629 0.20447,-1.8563119 0.303388,-2.6205665 0.36275,-2.8026392 0.09478,-0.290703 0.30272,-0.5330782 0.569911,-0.664282 L 18.44244,2.7066476 h 2.095195 2.095194 l 0.170122,0.090908 c 0.493674,0.2637956 0.598503,0.4729618 0.720304,1.437221 0.157301,1.2453025 0.298195,2.4984757 0.298195,2.6522824 0,0.1876177 0.06589,0.3321668 0.175692,0.3854248 0.04741,0.022997 0.213127,0.081765 0.368252,0.130588 0.466461,0.1468193 0.980242,0.3573018 1.482317,0.6072663 0.261255,0.1300691 0.518597,0.2364901 0.57187,0.2364901 0.05829,0 0.198054,-0.085331 0.350979,-0.2142863 0.257428,-0.2170762 0.813491,-0.6687181 1.881796,-1.5284199 0.619119,-0.4982277 0.806267,-0.5942408 1.158287,-0.5942408 0.214849,0 0.565929,0.1285742 0.699311,0.2561068 0.0554,0.052971 0.685288,0.6852895 1.399746,1.4051512 1.111645,1.1200531 1.314693,1.3430854 1.407709,1.5462596 0.137238,0.2997679 0.146247,0.6342721 0.02444,0.9074502 -0.04574,0.102562 -0.529305,0.779087 -1.074606,1.503385 -0.5453,0.724299 -1.002186,1.359665 -1.015304,1.411925 -0.01684,0.06708 0.05284,0.258888 0.236949,0.652249 0.259274,0.553977 0.502752,1.170212 0.58879,1.490208 0.08962,0.333344 0.09438,0.335388 0.97229,0.418288 1.969788,0.186004 2.747524,0.280891 2.917084,0.355895 0.220761,0.09765 0.453635,0.332227 0.561643,0.565745 0.08375,0.181056 0.08553,0.229088 0.08553,2.300255 v 2.11534 l -0.114889,0.233975 c -0.141334,0.28783 -0.421859,0.523482 -0.698923,0.587126 -0.106421,0.02443 -0.438268,0.07263 -0.737437,0.107139 -0.29917,0.03447 -0.743392,0.08784 -0.98716,0.118568 -0.243768,0.03069 -0.715187,0.08581 -1.047597,0.122347 -0.332411,0.03659 -0.653461,0.08498 -0.713447,0.107582 -0.11466,0.04323 -0.132892,0.08093 -0.337101,0.697583 -0.123791,0.373815 -0.270074,0.720303 -0.549828,1.302332 -0.129672,0.269793 -0.192153,0.446787 -0.177845,0.503795 0.01935,0.07714 0.249018,0.389807 0.952057,1.296313 0.689096,0.888533 1.102918,1.462405 1.149271,1.593785 0.105633,0.299397 0.10986,0.485434 0.01776,0.781393 l -0.08711,0.279922 -1.416226,1.427573 c -1.588044,1.600762 -1.61036,1.617952 -2.101193,1.617952 -0.213874,0 -0.33074,-0.02323 -0.483507,-0.09597 -0.159296,-0.07585 -1.699421,-1.268478 -2.619825,-2.028654 -0.08721,-0.07199 -0.191012,-0.130947 -0.230688,-0.130947 -0.03967,0 -0.255319,0.0919 -0.47921,0.204278 -0.472603,0.237164 -1.259557,0.556581 -1.670148,0.677905 -0.157126,0.04645 -0.314913,0.116706 -0.350638,0.156183 -0.07447,0.0823 -0.07078,0.05982 -0.230728,1.402207 -0.06621,0.555604 -0.154243,1.254358 -0.195645,1.552779 -0.104848,0.755724 -0.243339,1.006751 -0.676526,1.226245 l -0.235098,0.119121 -1.994463,0.0073 c -1.096956,0.0037 -2.062325,-0.0094 -2.145266,-0.02949 z m 2.700872,-9.710863 c 0.807082,-0.08876 1.468609,-0.287285 2.205775,-0.661839 0.594409,-0.302024 1.023341,-0.619045 1.551952,-1.147034 0.883812,-0.882772 1.425069,-1.901681 1.692208,-3.18556 0.124687,-0.599246 0.124844,-1.613066 3.63e-4,-2.215115 -0.402894,-1.948261 -1.588244,-3.502795 -3.330598,-4.367934 -1.006702,-0.499862 -1.754976,-0.653739 -2.997623,-0.616436 -0.813174,0.02441 -1.208006,0.09736 -1.890165,0.349261 -2.435364,0.899288 -4.049046,3.186324 -4.052232,5.743146 -0.0016,1.355837 0.480394,2.72255 1.343064,3.807609 1.29696,1.631298 3.419629,2.520283 5.477276,2.293902 z"
       id="path1" /></g></svg>
