<?xml version="1.0" encoding="UTF-8"?>
<svg xmlns="http://www.w3.org/2000/svg" width="223" height="235" viewBox="0 0 223 235" fill="none" shape-rendering="geometricPrecision">
  <path fill="black" d="M14.36 234.01C11.63 233.42 8.4 231.7 6.19 229.68C3.2 226.94 1.64 224.37 0.68 220.63C0.12 218.44 0.11 216.35 0.11 117.57C0.11 7.82 0 14.89 1.74 10.96C3.46 7.08 7.06 3.49 10.96 1.76C14.81 0.05 9.42 0.16 95.67 0.16C183.58 0.16 176.76 0 180.95 2.11C183.29 3.28 185.48 5.35 193.62 14.05C195.98 16.57 199.04 19.84 200.41 21.31C201.79 22.78 205.91 27.16 209.57 31.04C218.26 40.26 218.92 41.04 220.11 43.5C222.12 47.68 221.99 41 221.99 133.72C221.99 227.31 222.16 219.77 219.88 224.4C217.52 229.18 212.73 232.93 207.61 234.02C204.64 234.65 17.25 234.64 14.36 234.01ZM90.79 202.98C92.59 202.11 93.91 200.88 94.99 199.03C95.81 197.64 95.82 197.55 95.98 191.27C96.15 184.73 96.24 184.21 97.54 182.29C97.86 181.82 98.82 181 99.67 180.45L101.22 179.46L116.12 179.37L131.02 179.29L132.73 178.45C134.96 177.35 136.95 175.36 137.92 173.27C138.62 171.74 138.7 171.19 138.8 167.09L138.91 162.58L165.44 162.5C191.83 162.42 191.97 162.42 193.33 161.79C195.2 160.93 196.87 159.35 197.75 157.64L198.48 156.21L198.48 130.32C198.48 105.92 198.45 104.38 197.94 103.46C197.06 101.84 195.35 100.15 193.76 99.31L192.26 98.52L165.56 98.44L138.86 98.36L138.86 91.76C138.86 85.85 138.8 84.98 138.24 83.33C137.4 80.85 135.33 78.59 132.71 77.3L130.74 76.33L116.49 76.18L102.23 76.03L101.09 75.12C100.47 74.61 99.56 73.56 99.07 72.77L98.18 71.35L98.03 64.37C97.9 58.06 97.82 57.26 97.25 56.03C96.39 54.17 94.82 52.49 93.1 51.62L91.67 50.89L61.5 50.89L31.32 50.89L29.94 51.69C29.19 52.14 28.02 53.13 27.35 53.89C25.18 56.36 25.23 55.67 25.32 79.46L25.4 100.59L26.28 102.17C26.76 103.04 27.74 104.27 28.44 104.89C30.91 107.06 29.1 106.95 61.65 106.95C86.92 106.95 91 106.89 92.14 106.5C94.04 105.85 96.08 103.98 97.05 101.99C97.87 100.31 97.88 100.24 98.03 93.04L98.18 85.79L99.07 84.38C99.56 83.6 100.55 82.56 101.27 82.08L102.57 81.21L114.73 81.16C121.41 81.14 127.61 81.15 128.51 81.19C130.53 81.29 132.08 82.11 133.16 83.68L133.98 84.86L134.07 91.85L134.16 98.83L132.98 99.35C131.39 100.06 129.47 101.98 128.7 103.65C128.06 105.03 128.06 105.05 128.06 130.47L128.06 155.91L128.75 157.3C129.6 159.04 131.45 160.91 132.97 161.58L134.13 162.09L134.13 166.11C134.13 169.7 134.06 170.28 133.46 171.45C133.07 172.22 132.26 173.14 131.51 173.66L130.23 174.55L115.58 174.63L100.92 174.72L99.7 174C96.55 172.15 96.17 171.07 95.97 163.46C95.84 158.36 95.73 157.22 95.27 156.29C94.36 154.46 92.54 152.64 90.87 151.89L89.31 151.18L60.46 151.18L31.62 151.18L30.28 151.89C27.54 153.34 26.2 154.92 25.42 157.6C25 159.03 24.95 161.5 25.03 178.13C25.11 196.64 25.12 197.06 25.73 198.38C26.67 200.41 28.15 201.91 30.13 202.85L31.91 203.69L60.61 203.69L89.31 203.69L90.79 202.98ZM34.22 195.72C32.31 194.55 32.36 195.02 32.36 177.42L32.36 161.47L33.03 160.47C33.4 159.92 34.03 159.31 34.44 159.1C35 158.81 40.85 158.73 60.61 158.73C84.98 158.72 86.09 158.75 86.96 159.28C88.51 160.23 88.86 161.42 88.86 165.77L88.86 169.62L89.82 169.83C91.23 170.13 92.72 170.96 93.84 172.07C95.45 173.66 95.81 174.58 95.81 177.21C95.81 179.26 95.71 179.77 95.01 180.96C94.01 182.65 92.21 184.01 90.34 184.49L88.91 184.86L88.81 189.32C88.73 193.15 88.63 193.9 88.14 194.64C86.98 196.35 87.85 196.3 60.4 196.3C35.89 196.3 35.14 196.28 34.22 195.72ZM90.88 180.9C92.14 180.14 93.13 178.02 92.85 176.68C92.03 172.73 87.12 171.62 84.9 174.89C83.58 176.83 83.97 179.09 85.92 180.73C87.1 181.73 89.4 181.81 90.88 180.9ZM65.3 168.17C66.28 167.4 66.36 165.93 65.48 164.99C64.88 164.35 64.86 164.34 52.11 164.34C39.41 164.34 39.34 164.35 38.66 164.99C37.69 165.9 37.74 167.37 38.76 168.17C39.52 168.77 39.84 168.78 52.03 168.78C64.22 168.78 64.54 168.77 65.3 168.17ZM136.39 153.63C135.71 152.94 134.58 152 133.86 151.54C131.25 149.85 130.15 147.89 130.15 144.97C130.15 141.99 131.58 139.63 134.2 138.28L135.31 137.71L135.31 134.93L135.31 132.16L134.05 131.51C131.34 130.11 130.14 128.05 130.15 124.85C130.16 121.8 131.6 119.5 134.43 118.04L135.31 117.59L135.31 113.08C135.32 109.13 135.39 108.47 135.89 107.71C137.01 106.01 135.75 106.08 163.21 106.07C191.08 106.06 189.82 105.98 190.78 107.83C191.46 109.14 191.46 151.8 190.78 153.11C189.82 154.96 191.08 154.88 163.1 154.88L137.61 154.88L136.39 153.63ZM139.84 148.76C141.87 147.72 142.54 144.24 141.05 142.46C137.58 138.35 131.41 142.21 133.71 147.05C134.76 149.26 137.41 150 139.84 148.76ZM139.89 128.58C141.12 127.88 141.87 126.45 141.87 124.81C141.87 122.61 140.24 120.89 137.93 120.66C134.55 120.31 132.22 123.79 133.71 126.94C134.29 128.15 134.69 128.5 136.12 129.01C137.37 129.46 138.58 129.32 139.89 128.58ZM168.43 114.75C168.76 114.32 169.04 113.79 169.04 113.58C169.04 112.71 168.31 111.69 167.47 111.4C166.22 110.97 143.41 110.98 142.15 111.42C140.56 111.97 140.14 113.63 141.28 114.84L141.92 115.53L154.87 115.53L167.81 115.53L168.43 114.75ZM35.1 99.11C34.57 98.89 33.87 98.26 33.55 97.72C32.97 96.77 32.95 96.27 32.95 78.81L32.95 60.88L33.62 59.88C34.01 59.3 34.74 58.72 35.32 58.52C36.09 58.26 42.87 58.16 61.73 58.15C89.28 58.13 88.38 58.08 89.7 59.77C90.3 60.53 90.34 60.9 90.34 65.69L90.34 70.81L91.3 71.02C92.84 71.35 94.93 72.53 95.79 73.54C99.41 77.84 97.32 84.43 91.9 85.8L90.49 86.16L90.34 91.79C90.18 97.94 90.12 98.15 88.21 99.14C87.02 99.76 36.52 99.73 35.1 99.11ZM92.41 82.13C93.84 81.11 94.55 79.72 94.41 78.22C94.05 74.3 89.42 72.79 86.83 75.73C85.23 77.56 85.32 79.96 87.05 81.62C88.54 83.05 90.83 83.27 92.41 82.13ZM65.99 67.25C66.96 66.34 66.91 64.87 65.89 64.07C65.13 63.47 64.81 63.46 52.74 63.46C44.13 63.46 40.15 63.56 39.63 63.8C38.59 64.27 38.16 65.64 38.72 66.71C38.95 67.17 39.32 67.62 39.52 67.7C39.73 67.78 45.62 67.86 52.6 67.87C65.25 67.9 65.31 67.89 65.99 67.25Z"/>
</svg>
