<svg width="256" height="256" viewBox="0 0 256 256" fill="none" xmlns="http://www.w3.org/2000/svg">
<path d="M31.3107 244.688C28.5831 244.096 25.3528 242.384 23.1431 240.359C20.1544 237.621 18.5898 235.052 17.6337 231.313C17.0718 229.117 17.0602 227.035 17.0602 128.253C17.0602 18.4992 16.9521 25.5665 18.6922 21.6402C20.4105 17.7634 24.0099 14.1728 27.9138 12.4412C31.7609 10.7348 26.3724 10.8368 112.62 10.8368C200.537 10.8368 193.711 10.6808 197.9 12.7874C200.242 13.965 202.432 16.0291 210.576 24.7331C212.936 27.2552 215.992 30.5209 217.366 31.9902C218.741 33.4595 222.861 37.8385 226.523 41.7214C235.212 50.9369 235.873 51.7186 237.06 54.1787C239.077 58.3561 238.938 51.6821 238.938 144.405C238.938 237.99 239.113 230.455 236.832 235.082C234.476 239.861 229.687 243.615 224.561 244.701C221.597 245.329 34.2062 245.316 31.3107 244.688ZM107.738 213.658C109.542 212.794 110.858 211.557 111.946 209.706C112.758 208.325 112.77 208.234 112.931 201.948C113.098 195.413 113.189 194.89 114.496 192.968C114.812 192.503 115.768 191.677 116.621 191.132L118.172 190.139L133.073 190.053L147.974 189.966L149.685 189.126C151.909 188.034 153.9 186.045 154.868 183.949C155.573 182.423 155.652 181.871 155.754 177.768L155.867 173.262L182.393 173.182C208.78 173.103 208.927 173.099 210.287 172.47C212.148 171.609 213.822 170.034 214.698 168.318L215.428 166.889V141.002C215.428 116.598 215.398 115.059 214.894 114.136C214.014 112.524 212.305 110.829 210.713 109.989L209.215 109.198L182.515 109.118L155.814 109.038V102.445C155.814 96.5265 155.75 95.664 155.192 94.0104C154.354 91.5269 152.285 89.2716 149.659 87.9785L147.692 87.0098L133.438 86.8618L119.183 86.7138L118.046 85.7975C117.421 85.2935 116.51 84.2395 116.022 83.4552L115.135 82.0293L114.985 75.0523C114.849 68.7437 114.775 67.9442 114.205 66.7077C113.347 64.8483 111.772 63.1735 110.055 62.2964L108.626 61.5665H78.4493H48.2725L46.8965 62.3754C46.1396 62.8203 44.9721 63.8072 44.302 64.5685C42.1278 67.0385 42.1819 66.3556 42.2738 90.1441L42.3555 111.269L43.2331 112.854C43.7157 113.725 44.6883 114.947 45.3944 115.568C47.8648 117.743 46.0527 117.63 78.5972 117.63C103.869 117.63 107.957 117.57 109.091 117.183C110.988 116.535 113.032 114.656 114.003 112.667C114.824 110.986 114.832 110.918 114.983 103.724L115.135 96.475L116.022 95.0564C116.51 94.2761 117.499 93.2447 118.218 92.7644L119.526 91.8911L131.679 91.8442C138.363 91.8183 144.564 91.8318 145.459 91.8737C147.484 91.9688 149.03 92.7941 150.115 94.358L150.933 95.537L151.021 102.526L151.11 109.515L149.937 110.033C148.343 110.736 146.424 112.661 145.652 114.33C145.016 115.706 145.016 115.731 145.016 141.15V166.593L145.7 167.982C146.555 169.718 148.402 171.591 149.921 172.261L151.081 172.772V176.795C151.081 180.379 151.008 180.96 150.415 182.133C150.026 182.902 149.216 183.819 148.467 184.341L147.184 185.232L132.531 185.314L117.877 185.396L116.654 184.677C113.507 182.826 113.126 181.747 112.926 174.138C112.793 169.044 112.68 167.896 112.22 166.971C111.309 165.139 109.496 163.323 107.824 162.567L106.259 161.86H77.4138H48.5684L47.237 162.566C44.4927 164.021 43.1478 165.599 42.3695 168.277C41.9517 169.714 41.9047 172.176 41.9772 188.813C42.0578 207.32 42.0727 207.745 42.6826 209.063C43.6184 211.086 45.1057 212.595 47.0864 213.532L48.8642 214.373L77.5617 214.371L106.259 214.369L107.738 213.658ZM51.1714 206.397C49.2603 205.232 49.308 205.699 49.308 188.101V172.154L49.9825 171.153C50.3535 170.603 50.9859 169.986 51.3878 169.783C51.9553 169.495 57.8014 169.412 77.5617 169.409C101.937 169.405 103.043 169.43 103.916 169.962C105.467 170.908 105.815 172.098 105.815 176.452V180.303L106.777 180.511C108.184 180.815 109.675 181.645 110.792 182.747C112.406 184.34 112.759 185.261 112.764 187.895C112.767 189.945 112.66 190.446 111.959 191.638C110.962 193.333 109.167 194.692 107.288 195.173L105.867 195.538L105.767 200C105.682 203.835 105.586 204.582 105.089 205.316C103.93 207.029 104.798 206.977 77.3494 206.976C52.847 206.976 52.0912 206.957 51.1714 206.397ZM107.833 191.584C109.09 190.817 110.079 188.698 109.801 187.362C108.98 183.407 104.072 182.3 101.851 185.569C100.53 187.513 100.924 189.773 102.869 191.41C104.055 192.407 106.349 192.488 107.833 191.584ZM82.2554 178.85C83.2275 178.085 83.3091 176.614 82.4317 175.673C81.8292 175.026 81.8141 175.025 69.0635 175.025C56.3646 175.025 56.295 175.029 55.6139 175.668C54.6459 176.578 54.6897 178.048 55.7087 178.85C56.4694 179.448 56.7904 179.463 68.9821 179.463C81.1738 179.463 81.4947 179.449 82.2554 178.85ZM153.339 164.309C152.666 163.622 151.531 162.681 150.815 162.217C148.207 160.526 147.105 158.575 147.103 155.647C147.102 152.674 148.535 150.309 151.155 148.958L152.264 148.387V145.612V142.837L151.007 142.188C148.296 140.789 147.089 138.732 147.098 135.529C147.108 132.482 148.552 130.185 151.38 128.722L152.264 128.266L152.266 123.761C152.268 119.808 152.338 119.151 152.84 118.39C153.961 116.689 152.702 116.764 180.163 116.753C208.028 116.741 206.776 116.662 207.731 118.508C208.408 119.817 208.408 162.484 207.731 163.793C206.777 165.638 208.036 165.558 180.054 165.558H154.561L153.339 164.309ZM156.789 159.443C158.823 158.403 159.492 154.92 157.998 153.144C154.536 149.03 148.364 152.887 150.662 157.73C151.711 159.939 154.366 160.681 156.789 159.443ZM156.839 139.261C158.072 138.56 158.822 137.133 158.822 135.489C158.822 133.294 157.191 131.573 154.886 131.339C151.507 130.994 149.17 134.468 150.664 137.616C151.241 138.832 151.646 139.181 153.075 139.695C154.32 140.144 155.534 140.004 156.839 139.261ZM185.378 125.43C185.715 125.002 185.991 124.475 185.991 124.261C185.991 123.386 185.265 122.375 184.427 122.083C183.174 121.646 160.363 121.661 159.106 122.099C157.511 122.655 157.089 124.308 158.233 125.525L158.876 126.21H171.82H184.765L185.378 125.43ZM52.0504 109.795C51.5248 109.567 50.8263 108.94 50.4983 108.402C49.9177 107.449 49.9018 106.949 49.9008 89.4941L49.8996 71.565L50.5755 70.5597C50.9617 69.9853 51.6908 69.4031 52.2766 69.2013C53.0383 68.939 59.8255 68.8439 78.6805 68.8315C106.234 68.8129 105.328 68.761 106.653 70.446C107.255 71.211 107.295 71.5774 107.295 76.3754V81.4894L108.256 81.6972C109.797 82.0305 111.887 83.2062 112.74 84.2202C116.358 88.5191 114.268 95.1066 108.851 96.48L107.443 96.8371L107.295 102.47C107.133 108.622 107.072 108.835 105.165 109.82C103.972 110.437 53.4721 110.413 52.0504 109.795ZM109.366 92.8101C110.791 91.7895 111.502 90.3983 111.363 88.9013C110.998 84.9837 106.375 83.4668 103.787 86.4152C102.186 88.2377 102.275 90.644 104.004 92.3002C105.497 93.7301 107.778 93.9471 109.366 92.8101ZM82.9419 77.9346C83.9099 77.0252 83.8661 75.5548 82.8471 74.7533C82.0867 74.1552 81.764 74.1401 69.6957 74.1401C61.0787 74.1401 57.0995 74.2423 56.5849 74.4768C55.5435 74.9513 55.1134 76.3206 55.6686 77.3943C55.9059 77.8531 56.2693 78.2966 56.4761 78.3799C56.6829 78.4632 62.5683 78.5417 69.5547 78.5545C82.205 78.5777 82.26 78.5752 82.9419 77.9346Z" fill="black"/>
</svg>
