<?xml version="1.0" encoding="UTF-8" standalone="no"?>
<!-- Created with Inkscape (http://www.inkscape.org/) -->

<svg
   width="198.43225mm"
   height="209.56592mm"
   viewBox="0 0 198.43225 209.56592"
   version="1.1"
   id="svg1"
   xml:space="preserve"
   xmlns="http://www.w3.org/2000/svg"
   xmlns:svg="http://www.w3.org/2000/svg"><defs
     id="defs1" /><g
     id="layer1"
     transform="translate(3.277643,-26.617003)"><path
       style="fill:#000000"
       d="m 9.4679216,235.75576 c -2.43935,-0.52948 -5.32823,-2.06062 -7.30438,-3.8714 -2.67283996,-2.44918 -4.0721,-4.74658 -4.92713,-8.08972 -0.50251,-1.96479 -0.51287,-3.82659 -0.51287,-92.16858 0,-98.154151 -0.0968,-91.833771 1.45954,-95.345142 1.53665004,-3.467036 4.75566,-6.678154 8.247,-8.226785 3.4405,-1.526079 -1.37852,-1.434805 75.7538704,-1.434805 78.625298,0 72.520698,-0.139628 76.267078,1.744428 2.09412,1.053133 4.05299,2.899106 11.33649,10.683166 2.11053,2.255573 4.8432,5.176138 6.0726,6.490144 1.22941,1.314006 4.91419,5.230256 8.1884,8.702777 7.7709,8.241534 8.36229,8.940634 9.42424,11.140714 1.80328,3.73587 1.67908,-2.23272 1.67908,80.690313 0,83.69447 0.15648,76.95626 -1.88333,81.09399 -2.10697,4.27396 -6.38959,7.63103 -10.97394,8.60229 -2.65137,0.56173 -170.237128,0.55069 -172.8266484,-0.0114 z M 77.818332,208.00538 c 1.61268,-0.77322 2.7899,-1.87889 3.76303,-3.53434 0.72634,-1.23564 0.73658,-1.3163 0.88059,-6.93871 0.1497,-5.84438 0.23123,-6.312 1.40013,-8.03085 0.28232,-0.41514 1.13749,-1.15409 1.90038,-1.6421 l 1.38707,-0.8873 13.326058,-0.0777 13.32606,-0.0777 1.52965,-0.75113 c 1.98916,-0.97676 3.77023,-2.75549 4.63556,-4.62945 0.63011,-1.36459 0.701,-1.85889 0.79276,-5.52801 l 0.10078,-4.02942 23.72271,-0.0716 c 23.59814,-0.0712 23.72913,-0.0746 24.94572,-0.63713 1.66426,-0.76952 3.16125,-2.1784 3.94507,-3.71287 l 0.65275,-1.27787 v -23.15104 c 0,-21.82524 -0.0274,-23.20119 -0.47799,-24.02675 -0.78688,-1.4416 -2.315,-2.95761 -3.73855,-3.70891 l -1.33971,-0.70705 -23.87864,-0.0716 -23.87865,-0.0716 v -5.89629 c 0,-5.29334 -0.0569,-6.06472 -0.55627,-7.54349 -0.75007,-2.221073 -2.60019,-4.238043 -4.94823,-5.394473 l -1.75891,-0.86628 -12.74835,-0.13229 -12.748348,-0.13229 -1.01629,-0.81951 c -0.55897,-0.45073 -1.37349,-1.39336 -1.81005,-2.09472 l -0.79375,-1.27521 -0.13398,-6.23965 c -0.12114,-5.64183 -0.188,-6.35685 -0.69779,-7.46268 -0.76659,-1.66286 -2.17561,-3.16068 -3.71119,-3.94507 l -1.27787,-0.65275 h -26.9875 -26.9875 l -1.2306,0.72342 c -0.67684,0.39788 -1.72094,1.28047 -2.32024,1.96131 -1.94443,2.20899 -1.896,1.5983 -1.81381,22.87266 l 0.073,18.892603 0.78483,1.41695 c 0.43166,0.77933 1.30146,1.87171 1.9329,2.42753 2.20931,1.94471 0.58873,1.84406 29.69372,1.84406 22.6008,0 26.25654,-0.0536 27.2711,-0.40012 1.69633,-0.57932 3.52398,-2.25949 4.39314,-4.03864 0.73417,-1.5028 0.74085,-1.56385 0.87581,-7.99749 l 0.13599,-6.48313 0.79375,-1.26869 c 0.43656,-0.69778 1.32018,-1.62014 1.96359,-2.049683 l 1.16984,-0.781 10.86871,-0.042 c 5.977778,-0.0231 11.523538,-0.0112 12.323908,0.0264 1.81039,0.085 3.19363,0.82312 4.16355,2.221693 l 0.73124,1.05441 0.0791,6.2506 0.0791,6.25059 -1.04899,0.46282 c -1.42512,0.62876 -3.14175,2.35031 -3.83148,3.84245 -0.56894,1.23085 -0.56947,1.25316 -0.56947,23.98616 v 22.75416 l 0.61185,1.24219 c 0.76458,1.55224 2.4169,3.22684 3.77522,3.82614 l 1.03689,0.45747 v 3.59718 c 0,3.20529 -0.0649,3.72542 -0.59531,4.77419 -0.34794,0.6879 -1.07195,1.50832 -1.74233,1.97429 l -1.14701,0.79729 -13.104858,0.0734 -13.10487,0.0734 -1.09396,-0.64353 c -2.81397,-1.65536 -3.15511,-2.61991 -3.33346,-9.42514 -0.11938,-4.55534 -0.22059,-5.58181 -0.63202,-6.40963 -0.81418,-1.6382 -2.43556,-3.26241 -3.93153,-3.9384 l -1.39903,-0.63218 h -25.7968 -25.79688 l -1.19062,0.63147 c -2.45431,1.30168 -3.65705,2.71279 -4.35315,5.10729 -0.3736,1.28513 -0.41566,3.4873 -0.35078,18.36594 0.0722,16.55108 0.0854,16.93097 0.63084,18.10978 0.83689,1.80872 2.16704,3.15848 3.93839,3.99648 l 1.58991,0.75216 25.66458,-0.002 25.66458,-0.002 z m -50.58872,-6.49359 c -1.70906,-1.04208 -1.66649,-0.62406 -1.66649,-16.36261 v -14.26151 l 0.60326,-0.89517 c 0.33178,-0.49234 0.89733,-1.04398 1.25677,-1.22585 0.50755,-0.25683 5.73576,-0.33133 23.40768,-0.3336 21.79949,-0.003 22.78835,0.0179 23.56909,0.49403 1.3872,0.84592 1.69862,1.90997 1.69862,5.8039 v 3.44472 l 0.85989,0.18561 c 1.25838,0.27161 2.59204,1.01433 3.59097,1.99982 1.44355,1.42413 1.75903,2.24783 1.76315,4.60349 0.003,1.83367 -0.093,2.28125 -0.71994,3.34763 -0.89113,1.51588 -2.49654,2.73104 -4.17722,3.16179 l -1.27103,0.32575 -0.0891,3.99075 c -0.0765,3.43012 -0.1617,4.09803 -0.60616,4.75445 -1.0372,1.53183 -0.26027,1.48534 -24.80826,1.48427 -21.91282,-9.6e-4 -22.58867,-0.0159 -23.41127,-0.51747 z m 50.67286,-13.24792 c 1.12467,-0.68569 2.00866,-2.5812 1.76068,-3.77532 -0.7346,-3.53726 -5.12376,-4.52714 -7.11036,-1.6036 -1.18102,1.73803 -0.82853,3.75969 0.91071,5.22316 1.06054,0.89238 3.11265,0.96439 4.43897,0.15576 z m -22.87399,-11.38824 c 0.86931,-0.6838 0.9423,-1.99912 0.15767,-2.84133 -0.53887,-0.5784 -0.55234,-0.57905 -11.95535,-0.57905 -11.35679,0 -11.41903,0.003 -12.02823,0.57528 -0.86569,0.81327 -0.8265,2.12829 0.0848,2.8451 0.68028,0.53511 0.96734,0.54837 11.87057,0.54837 10.90322,0 11.19028,-0.0133 11.87057,-0.54837 z m 63.570688,-13.00379 c -0.60134,-0.6142 -1.61696,-1.45617 -2.25692,-1.87104 -2.33249,-1.51209 -3.31827,-3.25699 -3.31951,-5.87576 -0.001,-2.65837 1.28034,-4.77422 3.62318,-5.98169 l 0.99219,-0.51136 v -2.48145 -2.48145 l -1.12448,-0.58038 c -2.42402,-1.25112 -3.50395,-3.09102 -3.49548,-5.95534 0.008,-2.72548 1.30007,-4.7791 3.82978,-6.08726 l 0.79018,-0.40862 0.002,-4.0281 c 0.002,-3.5359 0.0642,-4.12291 0.51322,-4.80401 1.00263,-1.52097 -0.12322,-1.45353 24.43515,-1.46367 24.92063,-0.0103 23.801,-0.0816 24.65478,1.56946 0.60537,1.17067 0.60537,39.32791 0,40.49857 -0.8536,1.65067 0.27254,1.57884 -24.75205,1.57884 h -22.79844 z m 3.08554,-4.35193 c 1.81917,-0.92977 2.41721,-4.04535 1.08126,-5.63303 -3.09629,-3.67973 -8.6153,-0.22973 -6.56027,4.10091 0.93751,1.97565 3.31203,2.63965 5.47901,1.53212 z m 0.0451,-18.04868 c 1.10228,-0.62698 1.77325,-1.90349 1.77325,-3.37357 0,-1.96357 -1.45873,-3.50204 -3.5196,-3.71198 -3.02213,-0.30787 -5.11192,2.79888 -3.77616,5.61377 0.51602,1.08744 0.87839,1.40005 2.15593,1.85986 1.11359,0.4008 2.19982,0.27559 3.36658,-0.38808 z m 25.52245,-12.36937 c 0.3016,-0.38343 0.54837,-0.85407 0.54837,-1.04588 0,-0.78247 -0.64933,-1.68669 -1.39887,-1.94798 -1.11998,-0.39042 -21.52017,-0.37722 -22.64431,0.0147 -1.42703,0.49747 -1.80405,1.97556 -0.78153,3.06397 l 0.57529,0.61237 h 11.57634 11.57634 z M 28.015732,115.11923 c -0.47008,-0.20435 -1.09471,-0.76524 -1.38808,-1.24641 -0.51927,-0.85171 -0.53341,-1.29917 -0.53437,-16.909173 l -9.9e-4,-16.03431 0.60447,-0.89902 c 0.34538,-0.51368 0.99748,-1.03438 1.52136,-1.21482 0.68119,-0.23462 6.75106,-0.31963 23.61339,-0.33073 24.64141,-0.0162 23.83104,-0.063 25.01635,1.4439 0.53815,0.68415 0.57359,1.01176 0.57359,5.3027 v 4.5735 l 0.8599,0.18592 c 1.37831,0.298 3.24719,1.3495 4.01022,2.25631 3.23502,3.8446 1.36614,9.735893 -3.47809,10.964093 l -1.25974,0.31939 -0.13229,5.03749 c -0.14449,5.50218 -0.19947,5.69196 -1.90446,6.57364 -1.06673,0.55163 -46.22982,0.53025 -47.50126,-0.0225 z m 51.2578,-15.190083 c 1.27481,-0.91275 1.91042,-2.15692 1.78587,-3.49573 -0.32593,-3.50354 -4.46015,-4.86014 -6.77536,-2.22326 -1.431,1.62981 -1.35144,3.78181 0.19457,5.26298 1.33481,1.278833 3.37477,1.472843 4.79492,0.45601 z m -23.63111,-13.30335 c 0.86569,-0.81327 0.8265,-2.12828 -0.0848,-2.84509 -0.68003,-0.53492 -0.96861,-0.54837 -11.76151,-0.54837 -7.70627,0 -11.2649,0.0914 -11.7251,0.30105 -0.93136,0.42436 -1.31598,1.64903 -0.81945,2.6092 0.2122,0.41036 0.53715,0.80699 0.72211,0.88141 0.18497,0.0744 5.44831,0.14471 11.69633,0.1562 11.31337,0.0208 11.36255,0.0185 11.9724,-0.5544 z"
       id="path1" /></g></svg>
