<svg width="256" height="256" viewBox="0 0 256 256" fill="none" xmlns="http://www.w3.org/2000/svg">
<path d="M136.343 194.173L136.411 132.345L138.774 130.978C143.98 127.965 193.739 101.128 205.252 95.124C210.452 92.4118 215.731 89.6406 235.318 79.3395C237.488 78.1983 242.513 75.5215 246.484 73.391C253.438 69.6608 255.397 68.6835 255.598 68.8451C255.65 68.8866 255.716 76.1253 255.745 84.931L255.798 100.941L255.149 101.372C254.5 101.802 250.629 103.796 237.903 110.253C231.611 113.446 219.577 119.582 217.36 120.729C216.836 121 215.122 121.892 213.551 122.712C211.979 123.531 209.959 124.566 209.061 125.01C207.543 125.762 200.634 129.281 186.749 136.376C178.628 140.525 172.212 143.789 170.3 144.743L168.655 145.563V154.529C168.655 159.46 168.722 163.494 168.804 163.494C168.95 163.494 172.901 161.459 179.402 158.034C181.198 157.088 184.994 155.102 187.837 153.622C190.681 152.141 195.64 149.543 198.857 147.847C208.136 142.957 211.607 141.132 218.72 137.402C229.243 131.884 232.588 130.113 243.752 124.149C255.69 117.772 255.46 117.884 255.768 118.274C255.89 118.428 255.991 124.783 255.993 132.397C255.997 144.471 255.944 146.323 255.576 146.895C255.274 147.364 253.019 148.683 247.617 151.55C229.121 161.366 225.926 163.059 221.441 165.426C215.063 168.791 209.643 171.645 206.34 173.378C204.843 174.162 200.619 176.386 196.953 178.318C189.904 182.033 176.801 188.925 171.784 191.557L168.791 193.127L168.719 201.164C168.68 205.584 168.726 209.2 168.821 209.2C168.916 209.2 171.642 207.806 174.878 206.101C178.115 204.397 183.824 201.431 187.565 199.51C191.307 197.589 198.102 194.046 202.667 191.636C217.428 183.841 233.144 175.612 238.72 172.757C241.713 171.225 246.705 168.657 249.815 167.051C252.924 165.446 255.587 164.191 255.733 164.263C256.025 164.409 256.111 192.109 255.821 192.978C255.614 193.599 253.552 194.85 247.927 197.767C245.557 198.997 242.393 200.637 240.896 201.412C231.514 206.275 210.697 217.23 196.817 224.609C172.189 237.702 169.992 238.864 166.631 240.582C164.749 241.545 160.118 243.949 156.34 245.927C141.078 253.914 137 256 136.646 256C136.333 256 136.285 246.286 136.343 194.173ZM118.967 249.139C115.807 247.686 98.2188 238.45 97.6014 237.919C97.2074 237.579 95.8742 235.777 94.6388 233.912C90.5678 227.769 87.9539 223.788 85.8071 220.463C84.6424 218.659 82.7413 215.756 81.5826 214.012C74.4263 203.241 72.4837 200.336 69.8388 196.451C68.2174 194.07 66.8908 192.089 66.8908 192.05C66.8908 192.011 66.0824 190.81 65.0943 189.382C64.1063 187.953 61.7062 184.423 59.7608 181.536C56.1556 176.187 55.825 175.741 55.4608 175.741C55.3467 175.741 48.6627 181.158 40.6075 187.778C32.5523 194.398 25.5659 200.058 25.0822 200.354L24.2026 200.894L22.855 200.255C20.6727 199.221 2.08314 189.172 1.04353 188.465L0.0911858 187.817L0.0163053 128.801C-0.0248305 96.3429 0.0146967 69.5451 0.103074 69.2507C0.191934 68.9562 0.348027 68.8173 0.449982 68.9418C0.552019 69.0664 0.881974 69.2182 1.18339 69.2792C1.99801 69.444 30.9437 84.0538 31.9089 84.7873C32.4261 85.1803 32.435 85.8681 32.4004 122.715C32.3733 151.705 32.4391 160.223 32.69 160.156C32.8687 160.108 34.8334 158.207 37.0561 155.932C46.1735 146.598 57.7022 135.065 57.9159 135.065C58.2019 135.065 59.3322 136.57 62.5961 141.297C64.0078 143.342 65.446 145.409 65.7921 145.89C66.8873 147.412 70.4755 152.648 75.6085 160.214C84.6575 173.552 85.6754 175.084 86.8022 177.061C87.4168 178.139 88.0351 179.021 88.176 179.021C88.3359 179.021 88.3653 167.205 88.254 147.585C88.1428 127.981 88.1723 116.037 88.3325 115.852C88.534 115.62 88.7158 115.611 89.176 115.809C90.5268 116.39 119.49 131.826 120.29 132.39C120.741 132.709 120.766 135.785 120.766 191.192C120.766 237.82 120.697 249.657 120.426 249.655C120.239 249.654 119.582 249.421 118.967 249.139ZM128.521 119.287C128.221 119.156 127.548 118.825 127.024 118.551C126.5 118.277 124.235 117.093 121.99 115.919C119.746 114.745 116.746 113.176 115.324 112.431C111.447 110.4 99.365 104.128 89.3388 98.9427C79.3802 93.792 72.9916 90.5062 63.8978 85.8578C55.4634 81.5464 48.2681 77.8593 46.2115 76.7946C44.5688 75.9443 30.1112 68.6151 21.4507 64.2423C11.2912 59.1127 11.7074 59.3592 12.2158 58.7712C12.4313 58.5219 16.1585 56.5029 20.4984 54.2844C24.8383 52.066 33.8357 47.4623 40.4925 44.0541C52.5681 37.8715 57.7972 35.2111 67.5711 30.2776C70.4145 28.8424 75.0791 26.4671 77.937 24.9992C83.4556 22.1648 83.806 21.9898 97.0935 15.436C101.808 13.1109 106.399 10.839 107.297 10.3873C108.195 9.9357 110.338 8.86688 112.059 8.0122C113.78 7.15752 117.943 5.03249 121.31 3.28991C124.677 1.54733 127.686 0.068769 127.996 0.00422639C128.404 -0.0807009 130.997 1.10618 137.383 4.30044C142.236 6.7279 147.737 9.47724 149.608 10.4101C167.774 19.4691 183.702 27.4499 188.246 29.7702C190.416 30.8784 195.926 33.6838 200.49 36.0045C205.054 38.3251 210.564 41.1282 212.734 42.2335C214.904 43.3388 219.618 45.7184 223.21 47.5215C237.146 54.5175 244.188 58.1416 244.834 58.6485C245.423 59.1111 245.456 59.2149 245.106 59.4838C244.753 59.7542 233.18 65.7717 219.401 72.8492C216.857 74.1559 211.102 77.137 206.612 79.4739C202.123 81.8107 196.153 84.917 193.347 86.3767C190.54 87.8364 186.556 89.9163 184.492 90.9988C182.429 92.0814 179.889 93.4053 178.847 93.9409C177.806 94.4765 175.056 95.9095 172.736 97.1252C170.417 98.341 167.6 99.815 166.478 100.401C165.356 100.986 161.927 102.792 158.859 104.413C138.758 115.036 129.98 119.542 129.408 119.531C129.219 119.527 128.82 119.418 128.521 119.287ZM130.089 87.529C130.873 87.1241 133.105 86.0051 135.051 85.0423C139.699 82.742 169.736 67.6575 179.249 62.846C183.355 60.7693 186.754 58.9676 186.804 58.8422C186.853 58.7168 176.392 53.3379 163.557 46.889C150.722 40.4402 139.425 34.7561 138.452 34.2579C131.333 30.6114 128.516 29.2615 128.266 29.3762C128.107 29.449 123.752 31.694 118.589 34.365C97.4628 45.2943 95.2676 46.4179 79.8376 54.1994C74.7616 56.7593 70.5741 58.9517 70.5319 59.0713C70.4898 59.191 73.0511 60.579 76.2237 62.1558C82.4547 65.2525 88.5089 68.295 97.5016 72.8488C105.966 77.1353 112.015 80.1793 118.861 83.5987C127.902 88.114 128.212 88.2652 128.448 88.2652C128.567 88.2652 129.306 87.9339 130.089 87.529Z" fill="white"/>
</svg>
