<?xml version="1.0" encoding="UTF-8"?>
<svg xmlns="http://www.w3.org/2000/svg" width="48" height="48" viewBox="2.282 62.469 214.081 214.081" fill="none" shape-rendering="geometricPrecision">
  <path fill="#fff" d="m 114.51477,220.74812 0.0426,-47.87357 1.47011,-1.05852 c 3.24008,-2.33293 34.20646,-23.11294 41.37122,-27.76217 3.23642,-2.10012 6.52142,-4.24586 18.71133,-12.2221 1.35043,-0.88363 4.47742,-2.95631 6.94887,-4.60596 4.32729,-2.8884 5.54657,-3.64511 5.67172,-3.51996 0.0322,0.0321 0.0733,5.63712 0.0914,12.45549 l 0.0329,12.39703 -0.40347,0.33311 c -0.40399,0.33353 -2.81303,1.87708 -10.7328,6.87682 -3.9159,2.4721 -11.40472,7.22363 -12.78466,8.11164 -0.32597,0.20977 -1.39277,0.90063 -2.37067,1.53526 -0.9779,0.63462 -2.2352,1.43557 -2.794,1.77988 -0.94458,0.58201 -5.24449,3.30726 -13.88533,8.80042 -5.05385,3.21284 -9.0468,5.73982 -10.23674,6.47845 l -1.02393,0.63557 v 6.94209 c 0,3.81815 0.0418,6.9421 0.0929,6.9421 0.091,0 2.54946,-1.576 6.59577,-4.22828 1.1176,-0.73256 3.4798,-2.26987 5.24933,-3.41623 1.76954,-1.14636 4.85564,-3.15856 6.858,-4.47156 5.77434,-3.78635 7.93432,-5.1996 12.36133,-8.08789 6.54854,-4.27242 8.63009,-5.64358 15.57781,-10.26146 7.42954,-4.93813 7.2866,-4.85117 7.47812,-4.54935 0.0756,0.11922 0.13872,5.0402 0.14015,10.93551 0.002,9.34952 -0.0309,10.78352 -0.25964,11.22584 -0.18792,0.3634 -1.59142,1.38475 -4.953,3.6044 -11.51096,7.60065 -13.49928,8.91209 -16.2901,10.74443 -3.96943,2.60617 -7.34241,4.81604 -9.398,6.15727 -0.93134,0.60767 -3.56023,2.32913 -5.842,3.82546 -4.38635,2.87647 -12.54073,8.21314 -15.66334,10.25095 l -1.86266,1.21557 -0.0444,6.223 c -0.0244,3.42265 0.004,6.223 0.0631,6.223 0.0591,0 1.75549,-1.07988 3.76975,-2.39973 2.01425,-1.31985 5.56728,-3.61652 7.89562,-5.10371 2.32833,-1.48719 6.55743,-4.23089 9.398,-6.0971 9.18657,-6.03544 18.96706,-12.40756 22.43666,-14.6178 1.86267,-1.18657 4.96981,-3.17472 6.90476,-4.41812 1.93495,-1.2434 3.5923,-2.21486 3.683,-2.1588 0.18198,0.11247 0.23519,21.56156 0.0552,22.23383 -0.12887,0.48124 -1.41219,1.45001 -4.91278,3.70864 -1.47517,0.9518 -3.44413,2.2219 -4.37546,2.82244 -5.83916,3.76516 -18.79397,12.24736 -27.432,17.96116 -15.32639,10.13795 -16.69358,11.03814 -18.78532,12.36852 -1.17145,0.74507 -4.05338,2.60719 -6.4043,4.13804 -9.49804,6.18488 -12.03591,7.79996 -12.25655,7.79996 -0.19478,0 -0.22439,-7.52139 -0.18846,-47.87357 z m -10.81349,42.56072 c -1.9669,-1.12484 -12.91223,-8.27641 -13.29644,-8.68775 -0.24524,-0.26257 -1.07494,-1.6585 -1.84377,-3.10206 -2.53346,-4.75684 -4.16019,-7.83912 -5.496185,-10.414 -0.72485,-1.397 -1.90791,-3.6449 -2.62903,-4.99534 -4.45358,-8.34015 -5.66249,-10.58928 -7.30851,-13.59712 -1.00904,-1.84385 -1.83462,-3.37745 -1.83462,-3.408 0,-0.0305 -0.50309,-0.96035 -1.11799,-2.06621 -0.6149,-1.10587 -2.10854,-3.83946 -3.31921,-6.07466 -2.24364,-4.14232 -2.44939,-4.48734 -2.67603,-4.48734 -0.071,0 -4.23062,4.1942 -9.2436,9.32045 -5.01299,5.12624 -9.36083,9.50832 -9.66188,9.73794 l -0.54738,0.4175 -0.83863,-0.49447 c -1.35815,-0.8008 -12.92696,-8.58142 -13.57394,-9.12918 l -0.59267,-0.50178 -0.0466,-45.69623 c -0.0256,-25.13292 -0.001,-45.88275 0.054,-46.11073 0.0553,-0.22797 0.15244,-0.33559 0.21589,-0.23914 0.0635,0.0965 0.26884,0.21398 0.45642,0.2612 0.50696,0.12761 18.52073,11.44016 19.12138,12.00812 0.32183,0.30431 0.32737,0.83683 0.30588,29.36773 -0.0169,22.44717 0.0241,29.04255 0.18023,28.99083 0.11117,-0.0368 1.33387,-1.50859 2.71711,-3.27059 5.67402,-7.22771 12.84868,-16.15765 12.98167,-16.15765 0.17802,0 0.88142,1.16549 2.91263,4.826 0.87855,1.58327 1.77358,3.18347 1.98897,3.556 0.68154,1.1788 2.91462,5.2331 6.10903,11.09134 5.63144,10.32752 6.26492,11.51374 6.96613,13.04444 0.38252,0.83502 0.767265,1.51822 0.854985,1.51822 0.0995,0 0.11777,-9.14986 0.0485,-24.34166 -0.0692,-15.1796 -0.0508,-24.42792 0.0489,-24.57082 0.12537,-0.17974 0.23855,-0.18702 0.52491,-0.0338 0.84068,0.44992 18.86553,12.40212 19.36299,12.83952 0.28083,0.24693 0.29633,2.62844 0.29633,45.53098 0,36.10453 -0.0429,45.27 -0.21166,45.26838 -0.11642,-10e-4 -0.52492,-0.18119 -0.90779,-0.40015 z m 5.94545,-100.5456 c -0.18626,-0.10129 -0.60536,-0.35767 -0.93133,-0.56973 -0.32597,-0.21206 -1.73567,-1.12912 -3.13267,-2.03793 -1.397,-0.9088 -3.2639,-2.1242 -4.14866,-2.70089 -2.41297,-1.57276 -9.9317,-6.4286 -16.17134,-10.44397 -6.197515,-3.98826 -10.173305,-6.5325 -15.832665,-10.13182 -5.24896,-3.3383 -9.72681,-6.19331 -11.00667,-7.01766 -1.02227,-0.65844 -10.01968,-6.33353 -15.40933,-9.71939 -6.3226,-3.97195 -6.06358,-3.78102 -5.74717,-4.23636 0.13411,-0.19299 2.45364,-1.75634 5.1545,-3.47412 2.70087,-1.71777 8.30017,-5.28242 12.44289,-7.92145 7.515,-4.78725 10.76922,-6.84719 16.85178,-10.667258 1.76953,-1.111332 4.67249,-2.950534 6.45103,-4.087116 3.43435,-2.194744 3.65247,-2.330231 11.921635,-7.404891 2.9337,-1.800368 5.7912,-3.559526 6.35,-3.90924 0.5588,-0.349715 1.8923,-1.177309 2.96334,-1.839098 1.07103,-0.661789 3.66183,-2.307223 5.75733,-3.65652 2.0955,-1.349297 3.96787,-2.494156 4.16083,-2.544132 0.2539,-0.06576 1.86783,0.853256 5.842,3.326602 3.02014,1.879608 6.44367,4.00845 7.60784,4.730759 11.30548,7.014509 21.21759,13.194088 24.04532,14.990759 1.35044,0.858029 4.77944,3.03027 7.62,4.827205 2.84057,1.79693 6.26957,3.96738 7.62,4.82322 1.35044,0.85583 4.28414,2.69838 6.51934,4.09455 8.67254,5.4171 13.05545,8.22322 13.45705,8.61578 0.3664,0.35815 0.38744,0.4385 0.16933,0.64673 -0.21932,0.2094 -7.42158,4.86876 -15.99705,10.34898 -1.58327,1.0118 -5.16467,3.3201 -7.95867,5.12954 -2.794,1.80945 -6.50901,4.21465 -8.25558,5.34491 -1.74657,1.13025 -4.22619,2.7408 -5.51026,3.579 -1.28407,0.8382 -2.86496,1.86332 -3.51308,2.27805 -0.64812,0.41473 -2.3595,1.52428 -3.80307,2.46568 -1.44357,0.94139 -3.19617,2.08269 -3.89467,2.53621 -0.6985,0.45353 -2.8321,1.8517 -4.74133,3.10706 -12.50976,8.22538 -17.97274,11.71443 -18.32848,11.70585 -0.11744,-0.003 -0.36592,-0.088 -0.55219,-0.18931 z m 0.97628,-24.59026 c 0.48751,-0.31352 1.87699,-1.17999 3.08772,-1.92548 2.8928,-1.78119 21.58553,-13.46126 27.50581,-17.18687 2.55519,-1.60798 4.67082,-3.00303 4.70139,-3.10011 0.0306,-0.0971 -6.47964,-4.26206 -14.46714,-9.25549 -7.9875,-4.99343 -15.01802,-9.39462 -15.62339,-9.78041 -4.43046,-2.823487 -6.18341,-3.868724 -6.33929,-3.779944 -0.099,0.0564 -2.80894,1.794683 -6.02204,3.862864 -13.14751,8.46268 -14.51364,9.33267 -24.116185,15.358 -3.15893,1.98214 -5.76497,3.6797 -5.79119,3.77236 -0.0262,0.0927 1.56775,1.1674 3.54217,2.38833 3.87769,2.39784 7.645415,4.75368 13.241865,8.27974 5.26786,3.31902 9.03186,5.67601 13.29267,8.32375 5.62625,3.49624 5.81955,3.61331 5.96631,3.61331 0.0742,0 0.53378,-0.25652 1.0213,-0.57005 z"/>
</svg>
