<?xml version="1.0" encoding="UTF-8"?>
<svg xmlns="http://www.w3.org/2000/svg" width="48" height="48" viewBox="0 0 48 48" fill="none" shape-rendering="geometricPrecision"><g fill="#fff"><path id="w-right" d="M28.86 15.6q.34.47.56 1.01l.18.4.1.2.5 1.02.1.21.72 1.46.1.2 2.44 5.03 1.09 2.2.52 1.06.32.65.07.13.39.78.32.65.06.12.97 1.98.57 1.12q.24.48.14 1.02-.16.47-.38.92l-.22.5-.11.24q-.13.27-.24.55c-.34.84-.78 1.48-1.55 1.81-.37.14-.72.13-1.1.13h-1.87L32.34 39a2.2 2.2 0 0 1-1.77-.8c-.4-.5-.67-1.07-.95-1.66l-.68-1.37-1.84-3.66-1.5-2.99-.37-.73-.11-.24-.78-1.53a1.8 1.8 0 0 1-.25-1.16 9 9 0 0 1 .53-1.19l.59-1.28.6-1.3.23-.5.06-.13 1-2.18.95-2.1c.22-.45.33-.65.8-.57"/><path id="w-far-right" d="M41.7 9h5.09c.43 0 .73.1 1.06.44a1.2 1.2 0 0 1 .13.82q-.11.38-.27.73l-.1.22-.57 1.41a225 225 0 0 1-2.47 5.91q-.21.56-.47 1.1-.49 1.14-.95 2.28-.37.96-.78 1.9l-.96 2.34a238 238 0 0 1-1.75 4.3l-.06.13-.24.61-.08.21-.07.18q-.1.22-.26.37c-.21.03-.21.03-.44 0-.27-.32-.44-.74-.63-1.13l-.22-.45-.1-.23-.45-.89-.08-.16-.18-.35-2.45-4.9a1.5 1.5 0 0 1-.15-.86q.09-.29.21-.56l.07-.16.7-1.65a141 141 0 0 0 1.56-3.83 338 338 0 0 1 1.97-4.87l.14-.34c.4-1 .8-1.94 1.74-2.38A2.4 2.4 0 0 1 41.7 9"/><path id="w-far-left" d="M1.88 9h1.76l2.68.01q1.18 0 2.05.91.34.42.53.93L8.97 11l.7 1.7.4.95.07.19.69 1.64.86 2.1.1.26.27.66.06.16a2 2 0 0 1 .16.72v.18c-.06.26-.15.32-.35.46q-.33.05-.67.04H6.22c-1.05.01-1.83 0-2.62-.88a3 3 0 0 1-.53-1.02q-.14-.43-.33-.84l-.13-.3-.07-.16-.36-.82-.07-.17c-.94-2.14-.94-2.14-1.38-3.22L.42 11.9l-.08-.19-.16-.34a1.8 1.8 0 0 1-.11-1.29Q.72 8.98 1.87 9"/><path id="w-inner-left" d="M22.07 9h2.27a2.7 2.7 0 0 1 1.65.44l.14.1a4 4 0 0 1 1.05 1.49l.2.4.08.18q.1.21.23.41a1.6 1.6 0 0 1 .18.83v.18c-.04.46-.28.88-.47 1.29l-.8 1.78-.07.13-2.37 5.26-.07.16c-.38.83-.38.83-.62.97-.25.05-.4.08-.61-.08-.38-.45-.61-1.06-.87-1.6l-.5-1.03-.1-.22-.68-1.35-.75-1.5-.8-1.6-.53-1.03a2 2 0 0 1-.35-1.26 4 4 0 0 1 .47-1.16l.24-.5c.45-.95.94-1.8 1.87-2.16C21.26 9 21.66 9 22.07 9"/><path id="bar-upper" d="M1.95 21.45h1.83l5.32-.01h.16l7.8-.01h1.53a2.5 2.5 0 0 1 1.87.83l.18.17q.3.3.52.68l.1.15a24 24 0 0 1 1.02 1.82q.04.32 0 .65a1 1 0 0 1-.38.36 3 3 0 0 1-1.08-.17 9 9 0 0 0-3.11-.36h-2.16l-3.04-.01-5.81-.02H6.55c-.38 0-.6-.05-.87-.35q-.33-.5-.56-1.07l-.13-.28a.8.8 0 0 0-.57-.37l-.2-.01L4 23.43l-.45-.02a2.7 2.7 0 0 1-2-.91 1 1 0 0 1-.22-.66c.07-.23.07-.23.18-.32a1 1 0 0 1 .44-.07"/><path id="bar-lower" d="M7.41 26.86h10.86c1.96 0 1.96 0 2.68.71.32.44.36.82.34 1.38a2.4 2.4 0 0 1-.7 1.55l-.5.3-.11.07c-.2.1-.4.09-.62.09h-2.68l-6.33.01H8.51c-.3 0-.44-.08-.65-.32-.1-.18-.1-.18-.18-.37l-.08-.2c-.06-.16-.06-.16-.06-.3H7.4l-.96-.03c-.64-.02-1.26-.07-1.77-.55l-.12-.1c-.11-.18-.1-.33-.07-.55.15-.23.3-.26.53-.31l.21-.05.22-.05.2-.04q.53-.12 1.03-.2v-.17l-.01-.21-.01-.22c.02-.2.02-.2.12-.31.22-.14.41-.13.65-.13"/><path id="serif" d="M9.73 32.43h8.67a.6.6 0 0 1 .43.24c.08.5-.13.87-.32 1.3l-.1.24-.62 1.44-.05.14-.3.7c-.42 1.02-.84 1.96-1.81 2.37-.48.16-.99.14-1.49.13h-.52C12.55 39 12.55 39 12.06 38.67l-.2-.12a4 4 0 0 1-1.05-1.5l-.1-.23a88 88 0 0 1-1.14-2.72l-.23-.5a1.6 1.6 0 0 1-.17-.93c.15-.25.3-.24.56-.24"/><path id="accent" d="M17.85 15.64H18c.38.12.55.44.74.82l.23.5.25.52.06.14.4.8.1.18.18.34a1.2 1.2 0 0 1 .2.67.6.6 0 0 1-.32.41c-.16.03-.16.03-.35.03h-.68l-1.13.01h-.84c-.58 0-.58 0-.78-.21-.14-.25-.15-.34-.1-.63a8 8 0 0 1 .41-1.02l.08-.18.26-.66.3-.76.07-.15c.16-.39.36-.82.78-.81"/></g></svg>
